<?xml version="1.0" encoding="utf-8"?><svg fill="none" viewBox="0 0 512 512" xmlns="http://www.w3.org/2000/svg"><defs /><g transform="matrix(1,0,0,1,255.66,382.799)" id="Layer 44"><g id="Group 1"><path stroke-linejoin="round" stroke-linecap="round" stroke-width="1" stroke-opacity="1" stroke="#1a2e35" d="M-206.626,0L206.626,0" /></g></g><g transform="matrix(1,0,0,1,351.403,216.777)" id="Layer 65"><g id="Group 1"><path stroke-linejoin="miter" stroke-linecap="butt" stroke-width="1" stroke-opacity="1" stroke="#ececec" d="M14.948,6.317L-14.948,6.317L-14.948,-6.317L14.948,-6.317L14.948,6.317Z" /></g></g><g transform="matrix(1,0,0,1,318.115,216.777)" id="Layer 66"><g id="Group 1"><path stroke-linejoin="miter" stroke-linecap="butt" stroke-width="1" stroke-opacity="1" stroke="#ececec" d="M14.948,6.317L-14.948,6.317L-14.948,-6.317L14.948,-6.317L14.948,6.317Z" /></g></g><g id="Layer 49"><g transform="translate(415.11,165.517)"><g transform="rotate(0)"><animateTransform repeatCount="indefinite" type="rotate" attributeName="transform" dur="6s" begin="0s" calcMode="spline" values="0; 720" keyTimes="0; 1" keySplines="0 0 1 1" fill="freeze" /><g transform="scale(1,1) translate(-159.11,90.483)"><g id="Group 1"><path fill="#ececec" fill-opacity="1" d="M163.434,-82.421C158.982,-80.033,153.442,-81.705,151.054,-86.157C148.666,-90.609,150.334,-96.157,154.786,-98.545C159.238,-100.933,164.79,-99.257,167.178,-94.805C169.566,-90.353,167.886,-84.809,163.434,-82.421ZM172.885,-75.373L178.772,-84.863L175.866,-86.664C175.011,-87.194,174.547,-88.16,174.633,-89.162C174.681,-89.716,174.698,-90.272,174.686,-90.831C174.664,-91.834,175.188,-92.767,176.072,-93.241L179.084,-94.857L173.804,-104.702L170.792,-103.087C169.908,-102.613,168.841,-102.692,168.018,-103.265C167.559,-103.584,167.085,-103.878,166.598,-104.145C165.716,-104.628,165.167,-105.548,165.199,-106.553L165.307,-109.971L154.144,-110.318L154.041,-106.888C154.011,-105.882,153.394,-105.008,152.484,-104.578C152.237,-104.461,151.993,-104.337,151.75,-104.207C151.507,-104.077,151.269,-103.941,151.035,-103.8C150.178,-103.282,149.113,-103.253,148.262,-103.78L145.335,-105.594L139.448,-96.103L142.36,-94.296C143.215,-93.765,143.677,-92.798,143.59,-91.796C143.542,-91.245,143.523,-90.689,143.535,-90.133C143.556,-89.132,143.032,-88.199,142.149,-87.726L139.136,-86.11L144.416,-76.264L147.429,-77.88C148.312,-78.353,149.378,-78.274,150.201,-77.703C150.658,-77.386,151.131,-77.093,151.617,-76.828C152.5,-76.346,153.049,-75.426,153.018,-74.421L152.913,-70.995L164.076,-70.648L164.182,-74.075C164.213,-75.077,164.828,-75.95,165.735,-76.378C165.983,-76.495,166.229,-76.619,166.474,-76.751C166.716,-76.881,166.955,-77.017,167.189,-77.158C168.051,-77.678,169.121,-77.708,169.976,-77.177L172.885,-75.373Z" /></g></g></g></g></g><g id="Layer 50"><g transform="translate(93.414,273.056)"><g transform="rotate(0)"><animateTransform repeatCount="indefinite" type="rotate" attributeName="transform" dur="6s" begin="0s" calcMode="spline" values="0; 360" keyTimes="0; 1" keySplines="0 0 1 1" fill="freeze" /><g transform="scale(1,1) translate(162.586,-17.056)"><g id="Group 1"><path fill="#ececec" fill-opacity="1" d="M-158.262,25.118C-162.714,27.506,-168.254,25.833,-170.642,21.381C-173.03,16.929,-171.361,11.381,-166.909,8.993C-162.457,6.605,-156.905,8.282,-154.517,12.734C-152.129,17.186,-153.81,22.73,-158.262,25.118ZM-148.81,32.166L-142.923,22.676L-145.83,20.875C-146.685,20.345,-147.148,19.379,-147.062,18.377C-147.014,17.823,-146.998,17.266,-147.01,16.707C-147.032,15.704,-146.508,14.772,-145.624,14.298L-142.611,12.682L-147.891,2.837L-150.904,4.452C-151.788,4.926,-152.855,4.846,-153.678,4.273C-154.137,3.954,-154.611,3.661,-155.098,3.394C-155.98,2.911,-156.529,1.99,-156.497,0.985L-156.389,-2.432L-167.551,-2.779L-167.655,0.651C-167.685,1.657,-168.301,2.531,-169.211,2.961C-169.458,3.078,-169.703,3.201,-169.946,3.331C-170.188,3.461,-170.427,3.597,-170.66,3.738C-171.517,4.256,-172.582,4.286,-173.433,3.759L-176.361,1.945L-182.248,11.436L-179.336,13.243C-178.481,13.774,-178.019,14.741,-178.106,15.743C-178.154,16.294,-178.173,16.85,-178.161,17.406C-178.14,18.407,-178.663,19.34,-179.546,19.813L-182.56,21.429L-177.28,31.275L-174.266,29.658C-173.383,29.185,-172.318,29.265,-171.495,29.836C-171.038,30.153,-170.565,30.445,-170.079,30.71C-169.196,31.192,-168.646,32.113,-168.677,33.118L-168.783,36.544L-157.62,36.891L-157.513,33.463C-157.482,32.461,-156.868,31.589,-155.961,31.161C-155.713,31.044,-155.466,30.92,-155.221,30.788C-154.979,30.658,-154.74,30.522,-154.506,30.381C-153.645,29.861,-152.575,29.83,-151.72,30.361L-148.81,32.166Z" /></g></g></g></g></g><g id="Layer 51"><g transform="translate(207.638,109.896)"><g transform="rotate(0)"><animateTransform repeatCount="indefinite" type="rotate" attributeName="transform" dur="6s" begin="0s" calcMode="spline" values="0; 360" keyTimes="0; 1" keySplines="0 0 1 1" fill="freeze" /><g transform="scale(1,1) translate(48.362,146.104)"><g id="Group 1"><path fill="#ececec" fill-opacity="1" d="M-41.953,-146.104C-41.953,-142.565,-44.82,-139.698,-48.359,-139.698C-51.898,-139.698,-54.771,-142.565,-54.771,-146.104C-54.771,-149.643,-51.898,-152.516,-48.359,-152.516C-44.82,-152.516,-41.953,-149.643,-41.953,-146.104ZM-34.472,-149.606L-38.382,-156.382L-40.456,-155.184C-41.066,-154.832,-41.816,-154.865,-42.406,-155.25C-42.732,-155.463,-43.071,-155.659,-43.42,-155.836C-44.046,-156.154,-44.448,-156.787,-44.448,-157.489L-44.448,-159.884L-52.275,-159.884L-52.275,-157.489C-52.275,-156.787,-52.678,-156.154,-53.304,-155.836C-53.653,-155.659,-53.991,-155.463,-54.317,-155.25C-54.907,-154.865,-55.657,-154.832,-56.267,-155.184L-58.341,-156.382L-62.252,-149.606L-60.168,-148.406C-59.557,-148.054,-59.221,-147.384,-59.257,-146.68C-59.267,-146.489,-59.272,-146.297,-59.272,-146.104C-59.272,-145.911,-59.267,-145.719,-59.257,-145.528C-59.221,-144.827,-59.556,-144.161,-60.163,-143.81L-62.252,-142.603L-58.341,-135.826L-56.261,-137.025C-55.651,-137.377,-54.901,-137.343,-54.311,-136.957C-53.986,-136.745,-53.649,-136.55,-53.302,-136.373C-52.677,-136.054,-52.275,-135.422,-52.275,-134.72L-52.275,-132.324L-44.448,-132.324L-44.448,-134.72C-44.448,-135.422,-44.046,-136.054,-43.421,-136.373C-43.074,-136.55,-42.737,-136.745,-42.413,-136.957C-41.823,-137.342,-41.072,-137.377,-40.462,-137.025L-38.382,-135.826L-34.472,-142.603L-36.552,-143.803C-37.161,-144.154,-37.496,-144.822,-37.46,-145.524C-37.45,-145.716,-37.445,-145.909,-37.445,-146.104C-37.445,-146.297,-37.45,-146.489,-37.46,-146.68C-37.496,-147.384,-37.16,-148.055,-36.549,-148.407L-34.472,-149.606Z" /></g></g></g></g></g><g transform="matrix(1,0,0,1,444.649,326.414)" id="Layer 52"><g id="Group 1"><path stroke-linejoin="miter" stroke-linecap="butt" stroke-width="1" stroke-opacity="1" stroke="#ececec" d="M14.948,6.317L-14.948,6.317L-14.948,-6.317L14.948,-6.317L14.948,6.317Z" /></g></g><g transform="matrix(1,0,0,1,83.348,310.484)" id="Layer 59"><g id="Group 1"><path stroke-linejoin="miter" stroke-linecap="butt" stroke-width="1" stroke-opacity="1" stroke="#ececec" d="M14.948,6.317L-14.948,6.317L-14.948,-6.317L14.948,-6.317L14.948,6.317Z" /></g></g><g transform="matrix(1,0,0,1,66.671,326.414)" id="Layer 58"><g id="Group 1"><path stroke-linejoin="miter" stroke-linecap="butt" stroke-width="1" stroke-opacity="1" stroke="#ececec" d="M14.948,6.317L-14.948,6.317L-14.948,-6.317L14.948,-6.317L14.948,6.317Z" /></g></g><g transform="matrix(1,0,0,1,66.671,53.053)" id="Layer 57"><g id="Group 1"><path stroke-linejoin="miter" stroke-linecap="butt" stroke-width="1" stroke-opacity="1" stroke="#ececec" d="M14.948,6.317L-14.948,6.317L-14.948,-6.317L14.948,-6.317L14.948,6.317Z" /></g></g><g transform="matrix(1,0,0,1,444.649,53.053)" id="Layer 56"><g id="Group 1"><path stroke-linejoin="miter" stroke-linecap="butt" stroke-width="1" stroke-opacity="1" stroke="#ececec" d="M14.948,6.317L-14.948,6.317L-14.948,-6.317L14.948,-6.317L14.948,6.317Z" /></g></g><g transform="matrix(1,0,0,1,427.971,68.983)" id="Layer 55"><g id="Group 1"><path stroke-linejoin="miter" stroke-linecap="butt" stroke-width="1" stroke-opacity="1" stroke="#ececec" d="M14.948,6.317L-14.948,6.317L-14.948,-6.317L14.948,-6.317L14.948,6.317Z" /></g></g><g transform="matrix(1,0,0,1,190.638,90.621)" id="Layer 53"><g id="Group 1"><path stroke-linejoin="miter" stroke-linecap="butt" stroke-width="1" stroke-opacity="1" stroke="#ececec" d="M14.948,6.317L-14.948,6.317L-14.948,-6.317L14.948,-6.317L14.948,6.317Z" /></g></g><g id="Layer 48"><g transform="translate(82.125,353.165)"><g transform="rotate(0)"><animateTransform repeatCount="indefinite" type="rotate" attributeName="transform" dur="6s" begin="0s" calcMode="spline" values="0; 10.7; -3.004; 0" keyTimes="0; 0.308; 0.65; 1" keySplines="0.167 0.167 0.833 1; 0.167 0.019 0.833 0.936; 0.167 0 0.833 0.833" fill="freeze" /><g transform="scale(1,1) translate(-82.125,-353.165)"><g id="Group 2" transform="matrix(1,0,0,1,88.467,328.546)"><path fill="#1a2e35" fill-opacity="1" d="M6.028,-25.05C-7.04,-12.256,-9.234,7.538,-6.48,24.875C-6.409,25.268,-5.8,25.161,-5.8,24.791C-5.8,20.844,-5.919,16.934,-5.907,13.035C-5.835,12.856,-5.777,12.689,-5.705,12.51C-2.295,10.03,0.841,7.227,2.785,3.388C4.967,-0.904,5.825,-5.746,7.495,-10.229C7.65,-10.658,7.193,-10.532,6.893,-10.311C-1.056,-4.448,-3.591,1.862,-5.872,10.292C-5.765,5.916,-5.431,1.54,-4.489,-2.836C-2.772,-10.837,0.627,-18.766,6.374,-24.704C6.589,-24.931,6.255,-25.277,6.028,-25.05Z" /></g><g id="Group 1" transform="matrix(1,0,0,1,0,0)"><g id="Group 3" transform="matrix(1,0,0,1,100.639,301.618)"><path fill="#ffc800" fill-opacity="1" d="M-3.688,3.37C-1.44,3.446,-0.03,7.039,1.722,8.088C2.649,8.646,3.552,8.612,4.203,7.698C5.939,5.275,3.557,2.284,1.317,0.612C2.919,1.27,4.248,2.429,5.975,2.757C7.021,2.949,7.834,2.56,8.078,1.497C8.839,-1.807,4.695,-3.277,1.852,-3.346C3.23,-4.304,7.181,-6.909,5.082,-8.19C2.955,-9.476,-1.681,-5.751,-3.193,-4.524C-5.415,-2.721,-8.065,-0.026,-8.165,2.794C-8.295,6.086,-5.418,4.06,-3.688,3.37Z" /></g><g id="Group 2" transform="matrix(1,0,0,1,100.639,301.618)" opacity="0.1"><path fill="#000000" fill-opacity="1" d="M-3.688,3.37C-1.44,3.446,-0.03,7.039,1.722,8.088C2.649,8.646,3.552,8.612,4.203,7.698C5.939,5.275,3.557,2.284,1.317,0.612C2.919,1.27,4.248,2.429,5.975,2.757C7.021,2.949,7.834,2.56,8.078,1.497C8.839,-1.807,4.695,-3.277,1.852,-3.346C3.23,-4.304,7.181,-6.909,5.082,-8.19C2.955,-9.476,-1.681,-5.751,-3.193,-4.524C-5.415,-2.721,-8.065,-0.026,-8.165,2.794C-8.295,6.086,-5.418,4.06,-3.688,3.37Z" /></g><g id="Group 1" transform="matrix(1,0,0,1,98.951,301.271)"><path fill="#ffc800" fill-opacity="1" d="M-2.65,4.271C0.224,2.964,5.746,4.845,6.216,3.757C7.168,1.543,2.755,0.023,0.373,-0.271C2.567,-0.865,6.77,-1.812,6.641,-3.927C6.483,-6.51,0.194,-4.289,-2.989,-1.848C-6.999,1.227,-6.973,4.194,-6.31,4.788C-5.4,5.603,-3.124,4.487,-2.65,4.271Z" /></g></g></g></g></g></g><g id="Layer 47"><g transform="translate(78.812,351.595)"><g transform="rotate(0)"><animateTransform repeatCount="indefinite" type="rotate" attributeName="transform" dur="6s" begin="0s" calcMode="spline" values="0; -7.9; 4.095; 0" keyTimes="0; 0.517; 0.797; 1" keySplines="0.167 0.167 0.833 1; 0.167 0.02 0.833 0.936; 0.167 0 0.833 0.833" fill="freeze" /><g transform="scale(1,1) translate(-78.812,-351.595)"><g id="Group 2" transform="matrix(1,0,0,1,71.767,327.032)"><path fill="#1a2e35" fill-opacity="1" d="M-7.034,-24.803C6.512,-12.515,9.457,7.181,7.364,24.61C7.308,25.006,6.695,24.921,6.681,24.552C6.531,20.608,6.501,16.696,6.341,12.8C6.263,12.624,6.197,12.459,6.119,12.283C2.617,9.934,-0.624,7.254,-2.712,3.491C-5.056,-0.715,-6.097,-5.52,-7.936,-9.936C-8.107,-10.359,-7.645,-10.251,-7.337,-10.041C0.829,-4.485,3.601,1.723,6.201,10.061C5.927,5.692,5.428,1.332,4.32,-3.005C2.3,-10.935,-1.398,-18.729,-7.367,-24.444C-7.59,-24.662,-7.269,-25.021,-7.034,-24.803Z" /></g><g id="Group 1" transform="matrix(1,0,0,1,0,0)"><g id="Group 3" transform="matrix(1,0,0,1,58.594,300.717)"><path fill="#ffc800" fill-opacity="1" d="M3.742,3.096C1.498,3.257,0.227,6.902,-1.484,8.016C-2.389,8.609,-3.292,8.609,-3.978,7.721C-5.805,5.365,-3.539,2.287,-1.364,0.531C-2.94,1.25,-4.224,2.458,-5.937,2.851C-6.975,3.082,-7.802,2.726,-8.086,1.673C-8.972,-1.6,-4.887,-3.226,-2.049,-3.404C-3.463,-4.309,-7.51,-6.761,-5.462,-8.121C-3.386,-9.487,1.389,-5.942,2.947,-4.773C5.236,-3.056,7.987,-0.464,8.194,2.35C8.449,5.635,5.497,3.72,3.742,3.096Z" /></g><g id="Group 2" transform="matrix(1,0,0,1,58.594,300.717)" opacity="0.1"><path fill="#000000" fill-opacity="1" d="M3.742,3.096C1.498,3.257,0.227,6.902,-1.484,8.016C-2.389,8.609,-3.292,8.609,-3.978,7.721C-5.805,5.365,-3.539,2.287,-1.364,0.531C-2.94,1.25,-4.224,2.458,-5.937,2.851C-6.975,3.082,-7.802,2.726,-8.086,1.673C-8.972,-1.6,-4.887,-3.226,-2.049,-3.404C-3.463,-4.309,-7.51,-6.761,-5.462,-8.121C-3.386,-9.487,1.389,-5.942,2.947,-4.773C5.236,-3.056,7.987,-0.464,8.194,2.35C8.449,5.635,5.497,3.72,3.742,3.096Z" /></g><g id="Group 1" transform="matrix(1,0,0,1,60.194,300.166)"><path fill="#ffc800" fill-opacity="1" d="M2.813,4.176C-0.109,2.979,-5.556,5.069,-6.067,4C-7.102,1.823,-2.751,0.137,-0.382,-0.248C-2.597,-0.758,-6.832,-1.544,-6.783,-3.663C-6.724,-6.25,-0.356,-4.27,2.918,-1.952C7.042,0.968,7.129,3.934,6.489,4.553C5.611,5.402,3.295,4.373,2.813,4.176Z" /></g></g></g></g></g></g><g id="Layer 46"><g transform="translate(82.8,353.923)"><g transform="rotate(0)"><animateTransform repeatCount="indefinite" type="rotate" attributeName="transform" dur="6s" begin="0s" calcMode="spline" values="0; 13; -3.72; 0" keyTimes="0; 0.433; 0.714; 1" keySplines="0.167 0.167 0.833 1; 0.167 0.015 0.833 0.936; 0.167 0 0.833 0.833" fill="freeze" /><g transform="scale(1,1) translate(-82.8,-353.923)"><g id="Group 2" transform="matrix(1,0,0,1,77.844,321.58)"><path fill="#1a2e35" fill-opacity="1" d="M0.741,13.102C1.741,19.578,2.981,26.274,4.947,32.531C5.135,33.101,5.981,32.955,5.894,32.34C5.004,26.353,3.382,20.476,2.492,14.489C1.588,8.431,1.105,2.289,1.452,-3.838C2.022,-13.927,4.762,-24.659,11.345,-32.554C11.49,-32.741,11.183,-33.006,11.034,-32.832C-2.147,-17.464,-0.05,1.38,-0.038,3.068C-1.904,-3.295,-3.826,-10.587,-10.885,-17.066C-11.189,-17.345,-11.427,-17.213,-11.376,-16.738C-10.114,-4.937,-6.834,1.224,0.008,7.533C0.202,9.403,0.444,11.265,0.741,13.102Z" /></g><g id="Group 1" transform="matrix(1,0,0,1,0,0)"><g id="Group 3" transform="matrix(1,0,0,1,92.242,284.152)"><path fill="#ffc800" fill-opacity="1" d="M-2.934,6.641C-0.563,5.588,2.708,8.607,5.054,8.813C6.296,8.925,7.216,8.435,7.432,7.159C8.014,3.77,4.037,1.869,0.871,1.261C2.865,1.138,4.826,1.67,6.783,1.141C7.965,0.813,8.613,0.002,8.331,-1.224C7.457,-5.035,2.419,-4.474,-0.566,-3.115C0.382,-4.803,3.169,-9.495,0.347,-9.767C-2.507,-10.031,-5.442,-3.833,-6.394,-1.799C-7.792,1.191,-9.185,5.321,-7.869,8.297C-6.347,11.779,-4.382,8.228,-2.934,6.641Z" /></g><g id="Group 2" transform="matrix(1,0,0,1,92.242,284.152)" opacity="0.1"><path fill="#000000" fill-opacity="1" d="M-2.934,6.641C-0.563,5.588,2.708,8.607,5.054,8.813C6.296,8.925,7.216,8.435,7.432,7.159C8.014,3.77,4.037,1.869,0.871,1.261C2.865,1.138,4.826,1.67,6.783,1.141C7.965,0.813,8.613,0.002,8.331,-1.224C7.457,-5.035,2.419,-4.474,-0.566,-3.115C0.382,-4.803,3.169,-9.495,0.347,-9.767C-2.507,-10.031,-5.442,-3.833,-6.394,-1.799C-7.792,1.191,-9.185,5.321,-7.869,8.297C-6.347,11.779,-4.382,8.228,-2.934,6.641Z" /></g><g id="Group 1" transform="matrix(1,0,0,1,90.941,285.978)"><path fill="#ffc800" fill-opacity="1" d="M-2.029,5.718C0.296,2.915,6.972,2.086,6.911,0.721C6.784,-2.056,1.441,-1.41,-1.178,-0.516C0.799,-2.237,4.683,-5.335,3.484,-7.465C2.02,-10.066,-3.387,-4.596,-5.461,-0.461C-8.074,4.748,-6.554,7.813,-5.566,8.096C-4.212,8.484,-2.413,6.181,-2.029,5.718Z" /></g></g></g></g></g></g><g transform="matrix(1,0,0,1,81.787,360.416)" id="Layer 45"><g id="Group 1"><path fill="#ffc800" fill-opacity="1" d="M-11.874,-22.182L-17.687,22.233L17.687,22.233C16.958,18.297,10.374,-22.233,10.374,-22.233L-11.874,-22.182Z" /></g></g><g transform="matrix(1,0,0,1,255.66,448.696)" id="Layer 43"><g id="Group 1"><path fill="#ececec" fill-opacity="1" d="M149.057,0C149.057,11.64,82.322,21.075,0,21.075C-82.322,21.075,-149.057,11.64,-149.057,0C-149.057,-11.64,-82.322,-21.075,0,-21.075C82.322,-21.075,149.057,-11.64,149.057,0Z" /></g></g><g transform="matrix(1,0,0,1,116.184,120.939)" id="Layer 15"><g id="Group 1"><path stroke-linejoin="miter" stroke-linecap="butt" stroke-width="1" stroke-opacity="1" stroke="#1a2e35" d="M22.429,18.924C22.545,12.626,19.812,1.501,11.794,0.846C3.775,0.191,0.486,11.127,4.537,11.757C8.588,12.387,14.323,-9.854,1.689,-16.735C-10.945,-23.616,-22.432,-12.078,-22.432,-12.078" /></g></g><g transform="matrix(1,0,0,1,324.601,105.505)" id="Layer 13"><g id="Group 1"><path stroke-linejoin="miter" stroke-linecap="butt" stroke-width="1" stroke-opacity="1" stroke="#1a2e35" d="M-27.082,21.822C-28.92,14.935,-25.874,5.322,-18.29,2.257C-7.231,-2.212,5.801,8.719,1.53,12.451C-5.316,18.432,-13.887,-6.809,0.153,-17.795C12.798,-27.69,27.603,-16.236,27.603,-16.236" /></g></g><g id="Layer 10"><g transform="translate(356.33,89.841)"><g transform="rotate(0)"><animateTransform repeatCount="indefinite" type="rotate" attributeName="transform" dur="6s" begin="0s" calcMode="spline" values="0; 720" keyTimes="0; 1" keySplines="0 0 1 1" fill="freeze" /><g transform="scale(1,1) translate(-1071.798,-261.29)"><g id="Group 1" transform="matrix(1,0,0,1,0,0)"><g id="Group 1" transform="matrix(1,0,0,1,356.484,89.805)"><g id="Group 1" transform="matrix(1,0,0,1,356.484,89.805)"><g id="Group 1" transform="matrix(1,0,0,1,2.5,-8.163)"><g id="Group 8" transform="matrix(1,0,0,1,353.984,97.968)"><path fill="#1a2e35" fill-opacity="1" d="M1.679,-0.54L-1.197,-1.446L-1.679,0.64L0.879,1.446L1.679,-0.54Z" /></g><g id="Group 7" transform="matrix(1,0,0,1,348.89,93.816)"><path fill="#1a2e35" fill-opacity="1" d="M1.605,0.918L0.212,-1.756L-1.605,-0.622L-0.366,1.756L1.605,0.918Z" /></g><g id="Group 6" transform="matrix(1,0,0,1,348.204,87.495)"><path fill="#1a2e35" fill-opacity="1" d="M0.54,1.679L1.446,-1.197L-0.64,-1.679L-1.446,0.879L0.54,1.679Z" /></g><g id="Group 5" transform="matrix(1,0,0,1,352.356,82.401)"><path fill="#1a2e35" fill-opacity="1" d="M-0.918,1.605L1.756,0.212L0.622,-1.605L-1.756,-0.366L-0.918,1.605Z" /></g><g id="Group 4" transform="matrix(1,0,0,1,358.677,81.715)"><path fill="#1a2e35" fill-opacity="1" d="M-1.679,0.54L1.197,1.446L1.679,-0.64L-0.879,-1.446L-1.679,0.54Z" /></g><g id="Group 3" transform="matrix(1,0,0,1,363.771,85.867)"><path fill="#1a2e35" fill-opacity="1" d="M-1.605,-0.918L-0.212,1.756L1.605,0.622L0.366,-1.756L-1.605,-0.918Z" /></g><g id="Group 2" transform="matrix(1,0,0,1,364.457,92.188)"><path fill="#1a2e35" fill-opacity="1" d="M-0.54,-1.679L-1.446,1.197L0.64,1.679L1.446,-0.879L-0.54,-1.679Z" /></g><g id="Group 1" transform="matrix(1,0,0,1,360.305,97.282)"><path fill="#1a2e35" fill-opacity="1" d="M0.918,-1.605L-1.756,-0.212L-0.622,1.605L1.756,0.366L0.918,-1.605Z" /></g></g></g></g></g></g></g></g></g><g id="Layer 8"><g transform="translate(88.994,113.926)"><g transform="rotate(0)"><animateTransform repeatCount="indefinite" type="rotate" attributeName="transform" dur="6s" begin="0s" calcMode="spline" values="0; 720" keyTimes="0; 1" keySplines="0.333 0 0.667 1" fill="freeze" /><g transform="scale(1,1) translate(-88.994,-113.926)"><g id="Group 2" transform="matrix(1,0,0,1,0,0)"><g id="Group 9" transform="matrix(1,0,0,1,89.221,113.858)"><path fill="#1a2e35" fill-opacity="1" d="M5.352,1.303C4.631,4.261,1.653,6.072,-1.303,5.352C-4.261,4.631,-6.073,1.653,-5.352,-1.305C-4.632,-4.261,-1.653,-6.073,1.305,-5.352C4.26,-4.632,6.072,-1.653,5.352,1.303ZM11.46,2.791C13.002,-3.537,9.121,-9.918,2.793,-11.46C-3.537,-13.002,-9.918,-9.122,-11.46,-2.794C-13.002,3.536,-9.121,9.918,-2.791,11.46C3.537,13.002,9.918,9.121,11.46,2.791Z" /></g><g id="Group 8" transform="matrix(1,0,0,1,86.286,126.372)"><path fill="#1a2e35" fill-opacity="1" d="M2.462,-0.993L-1.945,-2.067L-2.462,1.112L1.458,2.067L2.462,-0.993Z" /></g><g id="Group 7" transform="matrix(1,0,0,1,78.237,120.64)"><path fill="#1a2e35" fill-opacity="1" d="M2.485,1.211L0.128,-2.665L-2.485,-0.782L-0.389,2.665L2.485,1.211Z" /></g><g id="Group 6" transform="matrix(1,0,0,1,76.548,111.219)"><path fill="#1a2e35" fill-opacity="1" d="M0.993,2.462L2.067,-1.945L-1.112,-2.462L-2.067,1.458L0.993,2.462Z" /></g><g id="Group 5" transform="matrix(1,0,0,1,82.28,103.169)"><path fill="#1a2e35" fill-opacity="1" d="M-1.211,2.485L2.665,0.128L0.782,-2.485L-2.665,-0.389L-1.211,2.485Z" /></g><g id="Group 4" transform="matrix(1,0,0,1,91.702,101.481)"><path fill="#1a2e35" fill-opacity="1" d="M-2.462,0.993L1.945,2.067L2.462,-1.112L-1.458,-2.067L-2.462,0.993Z" /></g><g id="Group 3" transform="matrix(1,0,0,1,99.751,107.213)"><path fill="#1a2e35" fill-opacity="1" d="M-2.485,-1.211L-0.128,2.665L2.485,0.782L0.389,-2.665L-2.485,-1.211Z" /></g><g id="Group 2" transform="matrix(1,0,0,1,101.44,116.634)"><path fill="#1a2e35" fill-opacity="1" d="M-0.993,-2.462L-2.067,1.945L1.112,2.462L2.067,-1.458L-0.993,-2.462Z" /></g><g id="Group 1" transform="matrix(1,0,0,1,95.708,124.684)"><path fill="#1a2e35" fill-opacity="1" d="M1.211,-2.485L-2.665,-0.128L-0.782,2.485L2.665,0.389L1.211,-2.485Z" /></g></g><g id="Group 1" transform="matrix(1,0,0,1,88.994,113.927)"><path fill="#1a2e35" fill-opacity="1" d="M0.302,-1.242C0.99,-1.075,1.41,-0.386,1.242,0.302C1.075,0.987,0.385,1.41,-0.303,1.242C-0.988,1.075,-1.409,0.382,-1.242,-0.303C-1.075,-0.991,-0.383,-1.409,0.302,-1.242ZM-3.445,2.095L0.092,4.031L3.538,1.934L3.444,-2.095L-0.09,-4.031L-3.538,-1.937L-3.445,2.095Z" /></g></g></g></g></g><g id="Layer 41"><g transform="translate(214.355,57.574)"><animateTransform repeatCount="indefinite" type="translate" attributeName="transform" dur="6s" begin="0s" calcMode="spline" values="214.355 57.574; 209.355 57.574; 216.605 55.074; 214.355 57.574" keyTimes="0; 0.333; 0.667; 1" keySplines="0.167 0.167 0.833 0.791; 0.167 0.139 0.833 0.877; 0.167 0.26 0.833 0.833" fill="freeze" /><g transform="rotate(0)"><animateTransform repeatCount="indefinite" type="rotate" attributeName="transform" dur="6s" begin="0s" calcMode="spline" values="0; -11; 9.4; 0" keyTimes="0; 0.333; 0.667; 1" keySplines="0.333 0 0.667 1; 0.333 0 0.667 1; 0.333 0 0.667 1" fill="freeze" /><g transform="scale(1,1) translate(41.645,198.426)"><g id="Group 1"><path fill="#1a2e35" fill-opacity="1" d="M-49.987,-198.426C-49.987,-197.187,-49.798,-195.988,-49.421,-194.831C-49.044,-193.673,-48.499,-192.65,-47.785,-191.761C-47.072,-190.872,-46.196,-190.158,-45.159,-189.619C-44.123,-189.08,-42.944,-188.812,-41.624,-188.812C-40.278,-188.812,-39.087,-189.088,-38.05,-189.64C-37.013,-190.191,-36.138,-190.926,-35.424,-191.842C-34.711,-192.757,-34.171,-193.786,-33.808,-194.931C-33.444,-196.076,-33.263,-197.24,-33.263,-198.426C-33.263,-199.664,-33.459,-200.863,-33.849,-202.021C-34.24,-203.179,-34.792,-204.203,-35.505,-205.092C-36.219,-205.981,-37.093,-206.687,-38.13,-207.212C-39.167,-207.737,-40.332,-208,-41.624,-208C-42.971,-208,-44.169,-207.724,-45.22,-207.172C-46.27,-206.62,-47.146,-205.893,-47.846,-204.991C-48.547,-204.088,-49.077,-203.065,-49.441,-201.92C-49.805,-200.775,-49.987,-199.611,-49.987,-198.426ZM-41.665,-183.883C-43.766,-183.883,-45.671,-184.294,-47.381,-185.116C-49.092,-185.937,-50.559,-187.028,-51.784,-188.388C-53.01,-189.747,-53.959,-191.302,-54.632,-193.053C-55.305,-194.804,-55.642,-196.594,-55.642,-198.426C-55.642,-200.338,-55.286,-202.169,-54.572,-203.92C-53.859,-205.671,-52.875,-207.218,-51.623,-208.565C-50.371,-209.912,-48.883,-210.982,-47.159,-211.777C-45.436,-212.571,-43.564,-212.969,-41.544,-212.969C-39.47,-212.969,-37.578,-212.545,-35.868,-211.696C-34.158,-210.848,-32.697,-209.738,-31.485,-208.364C-30.273,-206.99,-29.331,-205.429,-28.657,-203.678C-27.984,-201.927,-27.647,-200.149,-27.647,-198.345C-27.647,-196.432,-27.998,-194.608,-28.698,-192.871C-29.399,-191.134,-30.368,-189.599,-31.606,-188.266C-32.845,-186.933,-34.327,-185.869,-36.05,-185.075C-37.774,-184.28,-39.645,-183.883,-41.665,-183.883Z" /></g></g></g></g></g><g id="Layer 42"><g transform="translate(241.865,61.351)"><animateTransform repeatCount="indefinite" type="translate" attributeName="transform" dur="6s" begin="0s" calcMode="spline" values="241.865 61.351; 240.115 64.601; 244.115 63.601; 241.865 61.351" keyTimes="0; 0.333; 0.667; 1" keySplines="0.167 0.167 0.833 0.823; 0.167 0.157 0.833 0.852; 0.167 0.191 0.833 0.833" fill="freeze" /><g transform="rotate(0)"><animateTransform repeatCount="indefinite" type="rotate" attributeName="transform" dur="6s" begin="0s" calcMode="spline" values="0; 25; -6.1; 0" keyTimes="0; 0.333; 0.667; 1" keySplines="0.333 0 0.667 1; 0.333 0 0.667 1; 0.333 0 0.667 1" fill="freeze" /><g transform="scale(1,1) translate(14.135,194.649)"><g id="Group 1"><path fill="#1a2e35" fill-opacity="1" d="M-19.649,-194.629C-19.649,-193.686,-19.508,-192.831,-19.225,-192.064C-18.942,-191.296,-18.553,-190.63,-18.054,-190.064C-17.556,-189.499,-16.969,-189.06,-16.296,-188.751C-15.623,-188.441,-14.897,-188.286,-14.115,-188.286C-13.334,-188.286,-12.607,-188.441,-11.934,-188.751C-11.261,-189.06,-10.675,-189.499,-10.176,-190.064C-9.678,-190.63,-9.288,-191.303,-9.005,-192.084C-8.722,-192.865,-8.58,-193.726,-8.58,-194.669C-8.58,-195.584,-8.722,-196.432,-9.005,-197.214C-9.288,-197.995,-9.678,-198.669,-10.176,-199.234C-10.675,-199.8,-11.261,-200.237,-11.934,-200.547C-12.607,-200.857,-13.334,-201.012,-14.115,-201.012C-14.897,-201.012,-15.623,-200.85,-16.296,-200.527C-16.969,-200.204,-17.556,-199.759,-18.054,-199.194C-18.553,-198.628,-18.942,-197.955,-19.225,-197.174C-19.508,-196.393,-19.649,-195.544,-19.649,-194.629ZM-14.115,-183.681C-15.839,-183.681,-17.387,-183.978,-18.76,-184.57C-20.134,-185.162,-21.299,-185.963,-22.255,-186.973C-23.211,-187.983,-23.945,-189.148,-24.456,-190.468C-24.968,-191.787,-25.224,-193.175,-25.224,-194.629C-25.224,-196.11,-24.968,-197.51,-24.456,-198.83C-23.945,-200.149,-23.211,-201.314,-22.255,-202.324C-21.299,-203.334,-20.134,-204.135,-18.76,-204.728C-17.387,-205.32,-15.839,-205.617,-14.115,-205.617C-12.392,-205.617,-10.849,-205.32,-9.489,-204.728C-8.13,-204.135,-6.972,-203.334,-6.016,-202.324C-5.06,-201.314,-4.326,-200.149,-3.814,-198.83C-3.303,-197.51,-3.046,-196.11,-3.046,-194.629C-3.046,-193.175,-3.303,-191.787,-3.814,-190.468C-4.326,-189.148,-5.053,-187.983,-5.995,-186.973C-6.938,-185.963,-8.095,-185.162,-9.469,-184.57C-10.843,-183.978,-12.392,-183.681,-14.115,-183.681Z" /></g></g></g></g></g><g id="Layer 54"><g transform="translate(267.557,65.451)"><animateTransform repeatCount="indefinite" type="translate" attributeName="transform" dur="6s" begin="0s" calcMode="spline" values="267.557 65.451; 272.057 59.701; 272.807 65.701; 267.557 65.451" keyTimes="0; 0.333; 0.667; 1" keySplines="0.167 0.167 0.833 0.845; 0.167 0.18 0.833 0.846; 0.167 0.181 0.833 0.833" fill="freeze" /><g transform="rotate(0)"><animateTransform repeatCount="indefinite" type="rotate" attributeName="transform" dur="6s" begin="0s" calcMode="spline" values="0; 9.7; -6; 0" keyTimes="0; 0.333; 0.667; 1" keySplines="0.333 0 0.667 1; 0.333 0 0.667 1; 0.333 0 0.667 1" fill="freeze" /><g transform="scale(1,1) translate(-11.557,190.549)"><g id="Group 1"><path fill="#1a2e35" fill-opacity="1" d="M11.456,-188.286C12.264,-188.286,13.01,-188.461,13.698,-188.812C14.384,-189.162,14.971,-189.632,15.455,-190.225C15.939,-190.817,16.316,-191.504,16.586,-192.286C16.856,-193.067,16.99,-193.874,16.99,-194.709C16.99,-195.598,16.841,-196.427,16.545,-197.194C16.248,-197.962,15.838,-198.628,15.313,-199.194C14.788,-199.759,14.169,-200.204,13.455,-200.527C12.741,-200.85,11.966,-201.012,11.132,-201.012C10.62,-201.012,10.095,-200.924,9.557,-200.749C9.018,-200.574,8.52,-200.324,8.062,-200.001C7.604,-199.678,7.194,-199.3,6.83,-198.87C6.467,-198.439,6.191,-197.967,6.002,-197.456L6.002,-192.488C6.487,-191.276,7.227,-190.272,8.223,-189.478C9.219,-188.683,10.298,-188.286,11.456,-188.286ZM13.273,-183.681C11.603,-183.681,10.149,-184.051,8.911,-184.792C7.672,-185.532,6.702,-186.536,6.002,-187.802L6.002,-175.481L0.589,-175.481L0.589,-205.253L5.315,-205.253L5.315,-201.617C6.096,-202.855,7.106,-203.832,8.345,-204.546C9.583,-205.259,11.012,-205.617,12.627,-205.617C14.055,-205.617,15.374,-205.327,16.586,-204.748C17.798,-204.169,18.841,-203.388,19.716,-202.405C20.591,-201.422,21.278,-200.264,21.777,-198.931C22.275,-197.598,22.524,-196.19,22.524,-194.709C22.524,-193.174,22.294,-191.733,21.837,-190.387C21.379,-189.04,20.74,-187.868,19.919,-186.872C19.097,-185.875,18.121,-185.096,16.99,-184.53C15.859,-183.965,14.62,-183.681,13.273,-183.681Z" /></g></g></g></g></g><g id="Layer 60"><g transform="translate(289.693,61.331)"><animateTransform repeatCount="indefinite" type="translate" attributeName="transform" dur="6s" begin="0s" calcMode="spline" values="289.693 61.331; 293.193 65.581; 294.193 61.831; 289.693 61.331" keyTimes="0; 0.333; 0.667; 1" keySplines="0.167 0.167 0.833 0.854; 0.167 0.194 0.833 0.825; 0.167 0.159 0.833 0.833" fill="freeze" /><g transform="rotate(0)"><animateTransform repeatCount="indefinite" type="rotate" attributeName="transform" dur="6s" begin="0s" calcMode="spline" values="0; -12.7; 3.7; 0" keyTimes="0; 0.333; 0.667; 1" keySplines="0.333 0 0.667 1; 0.333 0 0.667 1; 0.333 0 0.667 1" fill="freeze" /><g transform="scale(1,1) translate(-33.693,194.669)"><g id="Group 1"><path fill="#1a2e35" fill-opacity="1" d="M34.199,-183.681C32.422,-183.681,30.684,-183.965,28.988,-184.53C27.291,-185.096,25.837,-185.903,24.625,-186.953L26.644,-190.346C27.937,-189.431,29.195,-188.737,30.421,-188.266C31.647,-187.794,32.866,-187.559,34.078,-187.559C35.154,-187.559,36.003,-187.761,36.623,-188.165C37.242,-188.569,37.551,-189.148,37.551,-189.902C37.551,-190.656,37.188,-191.208,36.461,-191.558C35.734,-191.908,34.549,-192.312,32.906,-192.77C31.533,-193.147,30.361,-193.511,29.391,-193.861C28.421,-194.211,27.64,-194.609,27.048,-195.053C26.455,-195.497,26.025,-196.009,25.755,-196.588C25.485,-197.167,25.352,-197.86,25.352,-198.668C25.352,-199.745,25.56,-200.715,25.978,-201.577C26.395,-202.438,26.981,-203.173,27.735,-203.779C28.489,-204.385,29.371,-204.849,30.381,-205.172C31.391,-205.495,32.487,-205.657,33.673,-205.657C35.262,-205.657,36.749,-205.428,38.137,-204.97C39.524,-204.512,40.797,-203.771,41.955,-202.748L39.773,-199.476C38.696,-200.284,37.653,-200.876,36.642,-201.254C35.632,-201.631,34.629,-201.819,33.633,-201.819C32.717,-201.819,31.95,-201.631,31.331,-201.254C30.711,-200.876,30.401,-200.271,30.401,-199.436C30.401,-199.059,30.476,-198.75,30.624,-198.507C30.771,-198.265,31.008,-198.049,31.331,-197.861C31.654,-197.672,32.078,-197.49,32.603,-197.315C33.128,-197.139,33.781,-196.958,34.562,-196.77C36.016,-196.392,37.261,-196.015,38.298,-195.638C39.335,-195.261,40.183,-194.831,40.843,-194.346C41.503,-193.861,41.987,-193.302,42.298,-192.67C42.607,-192.037,42.762,-191.276,42.762,-190.387C42.762,-188.313,41.995,-186.677,40.46,-185.479C38.926,-184.28,36.838,-183.681,34.199,-183.681Z" /></g></g></g></g></g><g id="Layer 61"><g transform="translate(306.033,57.433)"><animateTransform repeatCount="indefinite" type="translate" attributeName="transform" dur="6s" begin="0s" calcMode="spline" values="306.033 57.433; 311.033 63.083; 311.283 57.833; 306.033 57.433" keyTimes="0; 0.333; 0.667; 1" keySplines="0.167 0.167 0.833 0.855; 0.167 0.196 0.833 0.837; 0.167 0.17 0.833 0.833" fill="freeze" /><g transform="rotate(0)"><animateTransform repeatCount="indefinite" type="rotate" attributeName="transform" dur="6s" begin="0s" calcMode="spline" values="0; 4.9; -12.1; 0" keyTimes="0; 0.333; 0.667; 1" keySplines="0.333 0 0.667 1; 0.333 0 0.667 1; 0.333 0 0.667 1" fill="freeze" /><g transform="scale(1,1) translate(-50.033,198.567)"><g id="Group 1"><path fill="#1a2e35" fill-opacity="1" d="M47.327,-184.085L47.327,-190.185L52.74,-190.185L52.74,-184.085L47.327,-184.085ZM47.327,-194.871L47.327,-213.05L52.74,-213.05L52.74,-194.871L47.327,-194.871Z" /></g></g></g></g></g><g id="Layer 62"><g transform="translate(151.376,161.469)"><animateTransform repeatCount="indefinite" type="translate" attributeName="transform" dur="6s" begin="0s" calcMode="spline" values="151.376 161.469; 147.776 165.069; 156.381 163.865; 151.376 165.069; 151.376 161.469" keyTimes="0; 0.25; 0.5; 0.75; 1" keySplines="0.167 0.167 0.833 0.774; 0.167 0.132 0.833 0.867; 0.167 0.224 0.833 0.858; 0.167 0.202 0.833 0.833" fill="freeze" /><g transform="rotate(0)"><animateTransform repeatCount="indefinite" type="rotate" attributeName="transform" dur="6s" begin="0s" calcMode="spline" values="0; -4.5; 21.4; 3.8; 0" keyTimes="0; 0.25; 0.5; 0.75; 1" keySplines="0.167 0.167 0.833 1; 0.167 0.069 0.833 0.973; 0.167 0 0.833 0.899; 0.167 0.469 0.833 0.833" fill="freeze" /><g transform="scale(1,1) translate(104.624,94.531)"><g id="Group 1"><path fill="#1a2e35" fill-opacity="1" d="M-126.366,-73.478L-102.114,-79.641L-110.136,-111.204L-126.366,-73.478ZM-92.767,-28.672L-98.976,-53.102L-148.014,-40.639L-154.494,-66.139L-115.306,-155.451L-95.869,-160.39L-76.971,-86.031L-61.279,-90.019L-54.753,-64.341L-70.445,-60.353L-64.236,-35.923L-92.767,-28.672Z" /></g></g></g></g></g><g id="Layer 63"><g transform="translate(255.66,145.682)"><animateTransform repeatCount="indefinite" type="translate" attributeName="transform" dur="6s" begin="0s" calcMode="spline" values="255.66 145.682; 250.96 149.382; 259.232 148.144; 255.66 150.182; 255.66 145.682" keyTimes="0; 0.25; 0.5; 0.75; 1" keySplines="0.167 0.167 0.833 0.8; 0.167 0.143 0.833 0.876; 0.167 0.253 0.833 0.825; 0.167 0.159 0.833 0.833" fill="freeze" /><g transform="rotate(0)"><animateTransform repeatCount="indefinite" type="rotate" attributeName="transform" dur="6s" begin="0s" calcMode="spline" values="0; -5.8; 10.933; -2.333; 0" keyTimes="0; 0.25; 0.5; 0.75; 1" keySplines="0.167 0.167 0.833 1; 0.167 0.054 0.833 0.983; 0.167 0 0.833 0.931; 0.167 0 0.833 0.833" fill="freeze" /><g transform="scale(1,1) translate(0.34,110.318)"><g id="Group 1"><path fill="#1a2e35" fill-opacity="1" d="M18.058,-110.226C18.058,-118.81,16.34,-125.773,12.906,-131.109C9.47,-136.444,5.056,-139.112,-0.341,-139.112C-5.984,-139.112,-10.492,-136.444,-13.864,-131.109C-17.239,-125.773,-18.923,-118.81,-18.923,-110.226C-18.923,-101.639,-17.239,-94.707,-13.864,-89.435C-10.492,-84.16,-5.984,-81.524,-0.341,-81.524C5.056,-81.524,9.47,-84.16,12.906,-89.435C16.34,-94.707,18.058,-101.639,18.058,-110.226ZM47.681,-110.226C47.681,-102.13,46.453,-94.679,44.002,-87.871C41.547,-81.063,38.173,-75.176,33.88,-70.208C29.585,-65.24,24.527,-61.377,18.703,-58.617C12.875,-55.857,6.527,-54.477,-0.341,-54.477C-7.212,-54.477,-13.588,-55.857,-19.476,-58.617C-25.364,-61.377,-30.454,-65.24,-34.746,-70.208C-39.041,-75.176,-42.382,-81.063,-44.774,-87.871C-47.166,-94.679,-48.362,-102.13,-48.362,-110.226C-48.362,-118.321,-47.166,-125.772,-44.774,-132.58C-42.382,-139.388,-39.041,-145.275,-34.746,-150.243C-30.454,-155.211,-25.364,-159.104,-19.476,-161.927C-13.588,-164.747,-7.212,-166.159,-0.341,-166.159C6.527,-166.159,12.875,-164.747,18.703,-161.927C24.527,-159.104,29.585,-155.211,33.88,-150.243C38.173,-145.275,41.547,-139.388,44.002,-132.58C46.453,-125.772,47.681,-118.321,47.681,-110.226Z" /></g></g></g></g></g><g id="Layer 64"><g transform="translate(360.201,162.339)"><animateTransform repeatCount="indefinite" type="translate" attributeName="transform" dur="6s" begin="0s" calcMode="spline" values="360.201 162.339; 365.101 165.839; 368.065 164.67; 360.201 159.739; 360.201 162.339" keyTimes="0; 0.25; 0.5; 0.75; 1" keySplines="0.167 0.167 0.833 0.873; 0.167 0.241 0.833 0.674; 0.167 0.112 0.833 0.893; 0.167 0.381 0.833 0.833" fill="freeze" /><g transform="rotate(0)"><animateTransform repeatCount="indefinite" type="rotate" attributeName="transform" dur="6s" begin="0s" calcMode="spline" values="0; 6.1; -12.033; -0.917; 0" keyTimes="0; 0.25; 0.5; 0.75; 1" keySplines="0.167 0.167 0.833 1; 0.167 0.055 0.833 0.968; 0.167 0 0.833 0.91; 0.167 1 0.833 0.833" fill="freeze" /><g transform="scale(1,1) translate(-104.201,93.661)"><g id="Group 1"><path fill="#1a2e35" fill-opacity="1" d="M87.522,-87.858L112.222,-83.856L117.43,-116.003L87.522,-87.858ZM100.503,-33.38L104.534,-58.262L54.589,-66.353L58.796,-92.325L130.304,-158.651L150.101,-155.443L137.831,-79.708L153.814,-77.118L149.577,-50.965L133.594,-53.554L129.563,-28.672L100.503,-33.38Z" /></g></g></g></g></g><g transform="matrix(1,0,0,1,337.378,209.811)" id="Layer 14"><g id="Group 1"><path stroke-linejoin="miter" stroke-linecap="butt" stroke-width="1" stroke-opacity="1" stroke="#1a2e35" d="M22.051,-17.784C15.954,-19.366,4.499,-19.305,1.991,-11.661C-0.517,-4.017,9.351,1.734,10.908,-2.058C12.466,-5.85,-7.823,-16.618,-17.462,-5.938C-27.101,4.742,-18.563,18.605,-18.563,18.605" /></g></g><g id="Layer 9"><g transform="translate(318.115,232.707)"><g transform="rotate(0)"><animateTransform repeatCount="indefinite" type="rotate" attributeName="transform" dur="6s" begin="0s" calcMode="spline" values="0; 720" keyTimes="0; 1" keySplines="0.333 0 0.667 1" fill="freeze" /><g transform="scale(1,1) translate(-957.151,-689.885)"><g id="Group 1" transform="matrix(1,0,0,1,0,0)"><g id="Group 1" transform="matrix(1,0,0,1,318.268,232.67)"><g id="Group 1" transform="matrix(1,0,0,1,318.268,232.67)"><g id="Group 1" transform="matrix(1,0,0,1,2.5,-8.163)"><g id="Group 8" transform="matrix(1,0,0,1,315.768,240.833)"><path fill="#1a2e35" fill-opacity="1" d="M1.679,-0.54L-1.197,-1.446L-1.679,0.64L0.879,1.446L1.679,-0.54Z" /></g><g id="Group 7" transform="matrix(1,0,0,1,310.674,236.681)"><path fill="#1a2e35" fill-opacity="1" d="M1.605,0.918L0.212,-1.756L-1.605,-0.622L-0.366,1.756L1.605,0.918Z" /></g><g id="Group 6" transform="matrix(1,0,0,1,309.988,230.36)"><path fill="#1a2e35" fill-opacity="1" d="M0.54,1.679L1.446,-1.197L-0.64,-1.679L-1.446,0.879L0.54,1.679Z" /></g><g id="Group 5" transform="matrix(1,0,0,1,314.14,225.266)"><path fill="#1a2e35" fill-opacity="1" d="M-0.918,1.605L1.756,0.212L0.622,-1.605L-1.756,-0.366L-0.918,1.605Z" /></g><g id="Group 4" transform="matrix(1,0,0,1,320.461,224.581)"><path fill="#1a2e35" fill-opacity="1" d="M-1.679,0.54L1.197,1.446L1.679,-0.64L-0.879,-1.446L-1.679,0.54Z" /></g><g id="Group 3" transform="matrix(1,0,0,1,325.555,228.732)"><path fill="#1a2e35" fill-opacity="1" d="M-1.605,-0.918L-0.212,1.756L1.605,0.622L0.366,-1.756L-1.605,-0.918Z" /></g><g id="Group 2" transform="matrix(1,0,0,1,326.241,235.053)"><path fill="#1a2e35" fill-opacity="1" d="M-0.54,-1.679L-1.446,1.197L0.64,1.679L1.446,-0.879L-0.54,-1.679Z" /></g><g id="Group 1" transform="matrix(1,0,0,1,322.089,240.147)"><path fill="#1a2e35" fill-opacity="1" d="M0.918,-1.605L-1.756,-0.212L-0.622,1.605L1.756,0.366L0.918,-1.605Z" /></g></g></g></g></g></g></g></g></g><g transform="matrix(1,0,0,1,404.48,225.021)" id="Layer 7"><g id="Group 1"><path stroke-linejoin="miter" stroke-linecap="butt" stroke-width="1" stroke-opacity="1" stroke="#1a2e35" fill="#ffffff" fill-opacity="1" d="M-37.23,13.574C-39.92,9.478,-41.433,4.87,-41.433,0C-41.433,-17.196,-22.549,-31.138,0.73,-31.138C24.009,-31.138,42.874,-17.196,42.874,0C42.874,17.195,24.009,31.138,0.73,31.138C-10.558,31.138,-20.791,27.868,-28.351,22.523L-42.874,26.215L-37.23,13.574Z" /></g></g><g opacity="0" id="Layer 6"><animate repeatCount="indefinite" attributeName="opacity" dur="5.333333333333333s" begin="0s" calcMode="spline" values="0; 1; 1; 0" keyTimes="0; 0.188; 0.813; 1" keySplines="0.333 0 0.667 1; 0.333 0 0.667 1; 0.333 0 0.667 1" fill="freeze" /><g transform="translate(378.804,225.641) scale(1,1) translate(-122.804,30.359)"><g id="Group 1"><path fill="#1a2e35" fill-opacity="1" d="M127.521,-25.881L127.521,-23.565L118.087,-23.565L118.087,-37.153L127.349,-37.153L127.349,-34.837L120.728,-34.837L120.728,-31.565L126.45,-31.565L126.45,-29.421L120.728,-29.421L120.728,-25.881L127.521,-25.881Z" /></g></g></g><g opacity="0" visibility="hidden" id="Layer 5"><animate repeatCount="indefinite" begin="0.167s" calcMode="discrete" fill="freeze" dur="10.867s" values="visible; visible" keyTimes="0; 1" attributeName="visibility" /><animate repeatCount="indefinite" attributeName="opacity" dur="5.333333333333333s" begin="0.16666666666666666s" calcMode="spline" values="0; 1; 1; 0" keyTimes="0; 0.188; 0.813; 1" keySplines="0.333 0 0.667 1; 0.333 0 0.667 1; 0.333 0 0.667 1" fill="freeze" /><g transform="translate(391.081,225.641) scale(1,1) translate(-135.081,30.359)"><g id="Group 1"><path fill="#1a2e35" fill-opacity="1" d="M132.23,-30.436L135.541,-30.436C135.783,-30.436,136.009,-30.493,136.219,-30.608C136.43,-30.723,136.612,-30.879,136.765,-31.077C136.918,-31.274,137.04,-31.507,137.129,-31.775C137.219,-32.043,137.263,-32.331,137.263,-32.637C137.263,-32.956,137.212,-33.249,137.11,-33.517C137.008,-33.785,136.871,-34.017,136.698,-34.215C136.526,-34.413,136.328,-34.567,136.105,-34.675C135.881,-34.783,135.655,-34.837,135.425,-34.837L132.23,-34.837L132.23,-30.436ZM129.588,-23.565L129.588,-37.153L135.598,-37.153C136.223,-37.153,136.801,-37.022,137.33,-36.761C137.859,-36.499,138.315,-36.154,138.698,-35.727C139.081,-35.299,139.38,-34.815,139.597,-34.273C139.814,-33.731,139.922,-33.185,139.922,-32.637C139.922,-31.757,139.703,-30.956,139.262,-30.235C138.823,-29.514,138.226,-28.994,137.473,-28.675L140.574,-23.565L137.607,-23.565L134.833,-28.12L132.23,-28.12L132.23,-23.565L129.588,-23.565Z" /></g></g></g><g opacity="0" visibility="hidden" id="Layer 4"><animate repeatCount="indefinite" begin="0.333s" calcMode="discrete" fill="freeze" dur="10.867s" values="visible; visible" keyTimes="0; 1" attributeName="visibility" /><animate repeatCount="indefinite" attributeName="opacity" dur="5.333333333333333s" begin="0.3333333333333333s" calcMode="spline" values="0; 1; 1; 0" keyTimes="0; 0.188; 0.813; 1" keySplines="0.333 0 0.667 1; 0.333 0 0.667 1; 0.333 0 0.667 1" fill="freeze" /><g transform="translate(403.807,225.641) scale(1,1) translate(-147.807,30.359)"><g id="Group 1"><path fill="#1a2e35" fill-opacity="1" d="M144.956,-30.436L148.266,-30.436C148.508,-30.436,148.735,-30.493,148.945,-30.608C149.156,-30.723,149.338,-30.879,149.491,-31.077C149.644,-31.274,149.765,-31.507,149.854,-31.775C149.944,-32.043,149.989,-32.331,149.989,-32.637C149.989,-32.956,149.938,-33.249,149.836,-33.517C149.733,-33.785,149.596,-34.017,149.423,-34.215C149.251,-34.413,149.054,-34.567,148.831,-34.675C148.607,-34.783,148.381,-34.837,148.151,-34.837L144.956,-34.837L144.956,-30.436ZM142.314,-23.565L142.314,-37.153L148.324,-37.153C148.949,-37.153,149.526,-37.022,150.055,-36.761C150.584,-36.499,151.04,-36.154,151.423,-35.727C151.806,-35.299,152.106,-34.815,152.323,-34.273C152.54,-33.731,152.648,-33.185,152.648,-32.637C152.648,-31.757,152.429,-30.956,151.988,-30.235C151.549,-29.514,150.952,-28.994,150.199,-28.675L153.299,-23.565L150.333,-23.565L147.558,-28.12L144.956,-28.12L144.956,-23.565L142.314,-23.565Z" /></g></g></g><g opacity="0" visibility="hidden" id="Layer 3"><animate repeatCount="indefinite" begin="0.5s" calcMode="discrete" fill="freeze" dur="10.867s" values="visible; visible" keyTimes="0; 1" attributeName="visibility" /><animate repeatCount="indefinite" attributeName="opacity" dur="5.333333333333333s" begin="0.5s" calcMode="spline" values="0; 1; 1; 0" keyTimes="0; 0.188; 0.813; 1" keySplines="0.333 0 0.667 1; 0.333 0 0.667 1; 0.333 0 0.667 1" fill="freeze" /><g transform="translate(416.849,225.641) scale(1,1) translate(-160.849,30.359)"><g id="Group 1"><path fill="#1a2e35" fill-opacity="1" d="M156.897,-30.359C156.897,-29.772,156.986,-29.204,157.165,-28.656C157.344,-28.107,157.602,-27.622,157.94,-27.201C158.278,-26.78,158.693,-26.442,159.184,-26.187C159.675,-25.932,160.233,-25.804,160.859,-25.804C161.497,-25.804,162.061,-25.935,162.552,-26.197C163.043,-26.458,163.457,-26.806,163.796,-27.24C164.134,-27.674,164.389,-28.162,164.562,-28.704C164.734,-29.246,164.82,-29.798,164.82,-30.359C164.82,-30.946,164.728,-31.513,164.543,-32.062C164.357,-32.61,164.096,-33.096,163.758,-33.517C163.419,-33.938,163.005,-34.272,162.514,-34.521C162.023,-34.77,161.471,-34.895,160.859,-34.895C160.22,-34.895,159.653,-34.763,159.156,-34.502C158.658,-34.24,158.243,-33.896,157.912,-33.469C157.58,-33.041,157.328,-32.556,157.156,-32.014C156.983,-31.472,156.897,-30.92,156.897,-30.359ZM160.839,-23.47C159.844,-23.47,158.942,-23.664,158.131,-24.053C157.32,-24.442,156.625,-24.958,156.045,-25.603C155.464,-26.247,155.015,-26.984,154.696,-27.814C154.378,-28.643,154.218,-29.491,154.218,-30.359C154.218,-31.265,154.387,-32.132,154.725,-32.962C155.063,-33.791,155.529,-34.524,156.122,-35.162C156.716,-35.8,157.421,-36.308,158.237,-36.684C159.053,-37.06,159.94,-37.249,160.897,-37.249C161.879,-37.249,162.775,-37.048,163.586,-36.646C164.397,-36.244,165.089,-35.718,165.662,-35.067C166.236,-34.417,166.684,-33.676,167.002,-32.847C167.321,-32.017,167.48,-31.176,167.48,-30.321C167.48,-29.415,167.314,-28.551,166.983,-27.728C166.651,-26.905,166.191,-26.177,165.605,-25.546C165.018,-24.914,164.316,-24.41,163.5,-24.034C162.684,-23.658,161.796,-23.47,160.839,-23.47Z" /></g></g></g><g opacity="0" visibility="hidden" id="Layer 2"><animate repeatCount="indefinite" begin="0.667s" calcMode="discrete" fill="freeze" dur="10.867s" values="visible; visible" keyTimes="0; 1" attributeName="visibility" /><animate repeatCount="indefinite" attributeName="opacity" dur="5.333333333333333s" begin="0.6666666666666666s" calcMode="spline" values="0; 1; 1; 0" keyTimes="0; 0.188; 0.813; 1" keySplines="0.333 0 0.667 1; 0.333 0 0.667 1; 0.333 0 0.667 1" fill="freeze" /><g transform="translate(431.001,225.641) scale(1,1) translate(-175.001,30.359)"><g id="Group 1"><path fill="#1a2e35" fill-opacity="1" d="M172.15,-30.436L175.461,-30.436C175.703,-30.436,175.929,-30.493,176.139,-30.608C176.35,-30.723,176.532,-30.879,176.685,-31.077C176.838,-31.274,176.959,-31.507,177.048,-31.775C177.138,-32.043,177.183,-32.331,177.183,-32.637C177.183,-32.956,177.132,-33.249,177.03,-33.517C176.928,-33.785,176.791,-34.017,176.618,-34.215C176.446,-34.413,176.248,-34.567,176.025,-34.675C175.801,-34.783,175.575,-34.837,175.345,-34.837L172.15,-34.837L172.15,-30.436ZM169.508,-23.565L169.508,-37.153L175.518,-37.153C176.143,-37.153,176.721,-37.022,177.25,-36.761C177.779,-36.499,178.235,-36.154,178.618,-35.727C179.001,-35.299,179.3,-34.815,179.517,-34.273C179.734,-33.731,179.842,-33.185,179.842,-32.637C179.842,-31.757,179.622,-30.956,179.182,-30.235C178.743,-29.514,178.146,-28.994,177.393,-28.675L180.494,-23.565L177.527,-23.565L174.753,-28.12L172.15,-28.12L172.15,-23.565L169.508,-23.565Z" /></g></g></g><g id="Neck"><g transform="translate(258.505,322.534)"><g transform="rotate(0)"><animateTransform repeatCount="indefinite" type="rotate" attributeName="transform" dur="6s" begin="0s" calcMode="spline" values="0; 12; 0" keyTimes="0; 0.5; 1" keySplines="0.333 0 0.667 1; 0.333 0 0.667 1" fill="freeze" /><g transform="scale(1,1) translate(-258.505,-322.534)"><g transform="matrix(1,0,0,1,334.726,232.707)" id="Layer 67"><g id="Group 1"><path stroke-linejoin="miter" stroke-linecap="butt" stroke-width="1" stroke-opacity="1" stroke="#ececec" d="M14.948,6.317L-14.948,6.317L-14.948,-6.317L14.948,-6.317L14.948,6.317Z" /></g></g></g></g></g></g><g id="Neck"><g transform="translate(258.505,322.534)"><g transform="rotate(0)"><animateTransform repeatCount="indefinite" type="rotate" attributeName="transform" dur="6s" begin="0s" calcMode="spline" values="0; 12; 0" keyTimes="0; 0.5; 1" keySplines="0.333 0 0.667 1; 0.333 0 0.667 1" fill="freeze" /><g transform="scale(1,1) translate(-258.505,-322.534)"><g id="Group 5" transform="matrix(1,0,0,1,258.505,314.956)"><path fill="#2b454e" fill-opacity="1" d="M17.756,1.455L-17.756,1.455L-17.756,-1.455L17.756,-1.455L17.756,1.455Z" /></g><g id="Group 4" transform="matrix(1,0,0,1,258.505,318.745)"><path fill="#2b454e" fill-opacity="1" d="M17.756,1.455L-17.756,1.455L-17.756,-1.455L17.756,-1.455L17.756,1.455Z" /></g><g id="Group 3" transform="matrix(1,0,0,1,258.505,322.534)"><path fill="#2b454e" fill-opacity="1" d="M17.756,1.455L-17.756,1.455L-17.756,-1.455L17.756,-1.455L17.756,1.455Z" /></g><g id="Group 2" transform="matrix(1,0,0,1,258.505,326.324)"><path fill="#2b454e" fill-opacity="1" d="M17.756,1.455L-17.756,1.455L-17.756,-1.455L17.756,-1.455L17.756,1.455Z" /></g><g id="Group 1" transform="matrix(1,0,0,1,258.505,330.113)"><path fill="#2b454e" fill-opacity="1" d="M17.756,1.455L-17.756,1.455L-17.756,-1.455L17.756,-1.455L17.756,1.455Z" /></g></g></g></g></g><g transform="matrix(1,0,0,1,0,0)" id="torso"><g id="Group 5" transform="matrix(1,0,0,1,257.876,405.704)"><path fill="#2b454e" fill-opacity="1" d="M33.758,1.455L-33.758,1.455L-33.758,-1.455L33.758,-1.455L33.758,1.455Z" /></g><g id="Group 4" transform="matrix(1,0,0,1,257.876,409.493)"><path fill="#2b454e" fill-opacity="1" d="M33.758,1.455L-33.758,1.455L-33.758,-1.455L33.758,-1.455L33.758,1.455Z" /></g><g id="Group 3" transform="matrix(1,0,0,1,257.876,413.283)"><path fill="#2b454e" fill-opacity="1" d="M33.758,1.455L-33.758,1.455L-33.758,-1.455L33.758,-1.455L33.758,1.455Z" /></g><g id="Group 2" transform="matrix(1,0,0,1,257.876,417.072)"><path fill="#2b454e" fill-opacity="1" d="M33.758,1.455L-33.758,1.455L-33.758,-1.455L33.758,-1.455L33.758,1.455Z" /></g><g id="Group 1" transform="matrix(1,0,0,1,257.876,420.861)"><path fill="#2b454e" fill-opacity="1" d="M33.758,1.455L-33.758,1.455L-33.758,-1.455L33.758,-1.455L33.758,1.455Z" /></g></g><g id="Neck"><g transform="translate(258.505,322.534)"><g transform="rotate(0)"><animateTransform repeatCount="indefinite" type="rotate" attributeName="transform" dur="6s" begin="0s" calcMode="spline" values="0; 12; 0" keyTimes="0; 0.5; 1" keySplines="0.333 0 0.667 1; 0.333 0 0.667 1" fill="freeze" /><g transform="scale(1,1) translate(-258.505,-322.534)"><g transform="matrix(1,0,0,1,0,0)" id="Layer 38"><g id="Group 2" transform="matrix(1,0,0,1,189.973,259.227)"><path fill="#ffc800" fill-opacity="1" d="M4.521,30.227C4.554,29.834,-10.257,24.873,-10.257,24.873L-9.382,-26.013L10.257,-30.227L4.521,30.227Z" /></g><g id="Group 1" transform="matrix(1,0,0,1,189.973,259.227)" opacity="0.2"><path fill="#000000" fill-opacity="1" d="M4.521,30.227C4.554,29.834,-10.257,24.873,-10.257,24.873L-9.382,-26.013L10.257,-30.227L4.521,30.227Z" /></g></g></g></g></g></g><g id="Neck"><g transform="translate(258.505,322.534)"><g transform="rotate(0)"><animateTransform repeatCount="indefinite" type="rotate" attributeName="transform" dur="6s" begin="0s" calcMode="spline" values="0; 12; 0" keyTimes="0; 0.5; 1" keySplines="0.333 0 0.667 1; 0.333 0 0.667 1" fill="freeze" /><g transform="scale(1,1) translate(-258.505,-322.534)"><g transform="matrix(1,0,0,1,0,0)" id="Layer 37"><g id="Group 2" transform="matrix(1,0,0,1,346.353,280.089)"><path fill="#ffc800" fill-opacity="1" d="M-16.204,29.339C-16.1,28.958,-0.486,29.397,-0.486,29.397L16.204,-18.682L-0.785,-29.397L-16.204,29.339Z" /></g><g id="Group 1" transform="matrix(1,0,0,1,346.353,280.089)" opacity="0.2"><path fill="#000000" fill-opacity="1" d="M-16.204,29.339C-16.1,28.958,-0.486,29.397,-0.486,29.397L16.204,-18.682L-0.785,-29.397L-16.204,29.339Z" /></g></g></g></g></g></g><g id="Neck"><g transform="translate(258.505,322.534)"><g transform="rotate(0)"><animateTransform repeatCount="indefinite" type="rotate" attributeName="transform" dur="6s" begin="0s" calcMode="spline" values="0; 12; 0" keyTimes="0; 0.5; 1" keySplines="0.333 0 0.667 1; 0.333 0 0.667 1" fill="freeze" /><g transform="scale(1,1) translate(-258.505,-322.534)"><g transform="matrix(1,0,0,1,273.339,263.286)" id="Layer 36"><g id="Group 1"><path fill="#ffc800" fill-opacity="1" d="M-81.696,44.906C-81.696,44.906,-76.206,-37.392,-71.39,-64.465C-71.39,-64.465,28.027,-56.947,81.696,-36.433C81.696,-36.433,54.027,59.694,52.596,64.465C52.596,64.465,-17.412,50.674,-81.696,44.906Z" /></g></g></g></g></g></g><g id="Neck"><g transform="translate(258.505,322.534)"><g transform="rotate(0)"><animateTransform repeatCount="indefinite" type="rotate" attributeName="transform" dur="6s" begin="0s" calcMode="spline" values="0; 12; 0" keyTimes="0; 0.5; 1" keySplines="0.333 0 0.667 1; 0.333 0 0.667 1" fill="freeze" /><g transform="scale(1,1) translate(-258.505,-322.534)"><g transform="matrix(1,0,0,1,0,0)" id="Layer 35"><g id="Group 11" transform="matrix(1,0,0,1,303.067,247.325)" opacity="0.1"><path fill="#000000" fill-opacity="1" d="M-22.686,-37.514C-24.302,-27.605,-25.937,-17.699,-27.63,-7.803L-32.755,21.876L-33.031,21.456L0.28,29.37L16.918,33.402L33.536,37.514L16.83,33.775L0.141,29.957L-33.199,22.169L-33.536,22.09L-33.475,21.749L-28.17,-7.898C-26.387,-17.778,-24.546,-27.648,-22.686,-37.514Z" /></g><g id="Group 10" transform="matrix(1,0,0,1,274.794,215.458)" opacity="0.1"><path fill="#000000" fill-opacity="1" d="M1.933,0.001C1.929,-0.457,1.725,-0.907,1.384,-1.196C1.042,-1.485,0.594,-1.603,0.187,-1.556C-0.652,-1.459,-1.196,-0.707,-1.184,0.001C-1.197,0.708,-0.654,1.464,0.187,1.56C0.594,1.606,1.044,1.489,1.385,1.199C1.726,0.91,1.929,0.459,1.933,0.001ZM1.933,0.001C1.951,0.909,1.227,1.842,0.187,1.933C-0.317,1.981,-0.865,1.821,-1.275,1.463C-1.685,1.106,-1.93,0.556,-1.933,0.001C-1.931,-0.554,-1.687,-1.105,-1.276,-1.462C-0.867,-1.822,-0.317,-1.98,0.187,-1.933C1.228,-1.842,1.951,-0.907,1.933,0.001Z" /></g><g id="Group 9" transform="matrix(1,0,0,1,273.048,227.704)" opacity="0.1"><path fill="#000000" fill-opacity="1" d="M1.933,0.001C1.929,-0.457,1.725,-0.907,1.384,-1.196C1.042,-1.485,0.594,-1.603,0.187,-1.556C-0.652,-1.459,-1.196,-0.707,-1.184,0.001C-1.197,0.708,-0.654,1.464,0.187,1.56C0.594,1.606,1.044,1.488,1.385,1.198C1.726,0.909,1.929,0.459,1.933,0.001ZM1.933,0.001C1.951,0.909,1.227,1.842,0.187,1.933C-0.317,1.981,-0.865,1.821,-1.275,1.463C-1.685,1.106,-1.93,0.556,-1.933,0.001C-1.93,-0.554,-1.687,-1.105,-1.276,-1.462C-0.867,-1.822,-0.317,-1.981,0.187,-1.933C1.228,-1.842,1.951,-0.907,1.933,0.001Z" /></g><g id="Group 8" transform="matrix(1,0,0,1,270.898,240.642)" opacity="0.1"><path fill="#000000" fill-opacity="1" d="M1.933,0.001C1.929,-0.457,1.725,-0.907,1.384,-1.196C1.042,-1.485,0.594,-1.603,0.187,-1.556C-0.652,-1.459,-1.196,-0.707,-1.184,0.001C-1.197,0.708,-0.654,1.465,0.187,1.56C0.594,1.606,1.044,1.489,1.385,1.199C1.726,0.91,1.929,0.459,1.933,0.001ZM1.933,0.001C1.951,0.909,1.227,1.842,0.187,1.933C-0.317,1.981,-0.865,1.821,-1.275,1.463C-1.685,1.106,-1.93,0.556,-1.933,0.001C-1.93,-0.554,-1.687,-1.105,-1.276,-1.462C-0.867,-1.822,-0.317,-1.98,0.187,-1.933C1.228,-1.842,1.951,-0.907,1.933,0.001Z" /></g><g id="Group 7" transform="matrix(1,0,0,1,268.748,253.581)" opacity="0.1"><path fill="#000000" fill-opacity="1" d="M1.933,0.001C1.929,-0.457,1.725,-0.907,1.384,-1.196C1.042,-1.485,0.594,-1.603,0.187,-1.556C-0.652,-1.459,-1.196,-0.707,-1.184,0.001C-1.197,0.708,-0.654,1.465,0.187,1.56C0.594,1.606,1.044,1.488,1.385,1.198C1.726,0.909,1.929,0.459,1.933,0.001ZM1.933,0.001C1.952,0.909,1.227,1.842,0.187,1.933C-0.317,1.98,-0.865,1.821,-1.275,1.463C-1.685,1.106,-1.93,0.556,-1.933,0.001C-1.93,-0.554,-1.687,-1.105,-1.276,-1.462C-0.867,-1.822,-0.317,-1.981,0.187,-1.933C1.228,-1.842,1.951,-0.907,1.933,0.001Z" /></g><g id="Group 6" transform="matrix(1,0,0,1,276.074,274.216)" opacity="0.1"><path fill="#000000" fill-opacity="1" d="M1.933,0.001C1.929,-0.457,1.725,-0.907,1.384,-1.196C1.042,-1.485,0.594,-1.603,0.187,-1.556C-0.652,-1.459,-1.196,-0.707,-1.184,0.001C-1.197,0.708,-0.654,1.465,0.187,1.56C0.594,1.606,1.044,1.488,1.385,1.198C1.726,0.909,1.929,0.459,1.933,0.001ZM1.933,0.001C1.952,0.909,1.227,1.842,0.187,1.933C-0.317,1.98,-0.865,1.821,-1.275,1.463C-1.685,1.106,-1.93,0.556,-1.933,0.001C-1.93,-0.554,-1.687,-1.105,-1.276,-1.462C-0.867,-1.822,-0.317,-1.98,0.187,-1.933C1.228,-1.841,1.951,-0.907,1.933,0.001Z" /></g><g id="Group 5" transform="matrix(1,0,0,1,288.287,277.195)" opacity="0.1"><path fill="#000000" fill-opacity="1" d="M1.933,0.001C1.929,-0.457,1.725,-0.907,1.384,-1.196C1.042,-1.485,0.594,-1.603,0.187,-1.556C-0.652,-1.459,-1.196,-0.707,-1.184,0.001C-1.197,0.708,-0.654,1.465,0.187,1.56C0.594,1.606,1.044,1.488,1.385,1.198C1.726,0.909,1.929,0.459,1.933,0.001ZM1.933,0.001C1.952,0.909,1.227,1.842,0.187,1.933C-0.317,1.98,-0.865,1.821,-1.275,1.463C-1.685,1.106,-1.93,0.556,-1.933,0.001C-1.93,-0.554,-1.687,-1.105,-1.276,-1.462C-0.867,-1.822,-0.317,-1.98,0.187,-1.933C1.228,-1.841,1.951,-0.907,1.933,0.001Z" /></g><g id="Group 4" transform="matrix(1,0,0,1,300.501,280.174)" opacity="0.1"><path fill="#000000" fill-opacity="1" d="M1.933,0.001C1.929,-0.457,1.725,-0.907,1.384,-1.196C1.042,-1.485,0.594,-1.603,0.187,-1.556C-0.652,-1.459,-1.196,-0.707,-1.184,0.001C-1.197,0.708,-0.654,1.464,0.187,1.56C0.594,1.606,1.044,1.488,1.385,1.198C1.726,0.909,1.929,0.459,1.933,0.001ZM1.933,0.001C1.951,0.909,1.227,1.842,0.187,1.933C-0.317,1.98,-0.865,1.821,-1.275,1.463C-1.685,1.106,-1.93,0.556,-1.933,0.001C-1.93,-0.554,-1.687,-1.105,-1.276,-1.462C-0.867,-1.822,-0.317,-1.981,0.187,-1.933C1.228,-1.842,1.951,-0.907,1.933,0.001Z" /></g><g id="Group 3" transform="matrix(1,0,0,1,312.714,283.154)" opacity="0.1"><path fill="#000000" fill-opacity="1" d="M1.933,0.001C1.929,-0.457,1.725,-0.907,1.384,-1.196C1.042,-1.485,0.594,-1.603,0.187,-1.556C-0.652,-1.459,-1.196,-0.707,-1.184,0.001C-1.197,0.708,-0.654,1.464,0.187,1.56C0.594,1.606,1.044,1.489,1.385,1.199C1.726,0.91,1.929,0.459,1.933,0.001ZM1.933,0.001C1.952,0.909,1.227,1.842,0.187,1.933C-0.317,1.98,-0.865,1.821,-1.275,1.463C-1.685,1.106,-1.93,0.556,-1.933,0.001C-1.93,-0.554,-1.687,-1.105,-1.276,-1.462C-0.867,-1.822,-0.317,-1.981,0.187,-1.933C1.228,-1.842,1.951,-0.907,1.933,0.001Z" /></g><g id="Group 2" transform="matrix(1,0,0,1,324.929,286.12)" opacity="0.1"><path fill="#000000" fill-opacity="1" d="M1.926,0.149C1.957,-0.308,1.789,-0.773,1.471,-1.087C1.152,-1.402,0.714,-1.554,0.305,-1.538C-0.539,-1.506,-1.14,-0.797,-1.182,-0.091C-1.25,0.613,-0.766,1.409,0.065,1.569C0.467,1.647,0.924,1.564,1.287,1.301C1.65,1.039,1.886,0.605,1.926,0.149ZM1.926,0.149C1.875,1.056,1.081,1.93,0.037,1.941C-0.469,1.949,-1.004,1.748,-1.385,1.36C-1.767,0.972,-1.969,0.405,-1.929,-0.149C-1.884,-0.702,-1.598,-1.232,-1.161,-1.557C-0.725,-1.884,-0.165,-2,0.334,-1.914C1.365,-1.743,2.014,-0.755,1.926,0.149Z" /></g><g id="Group 1" transform="matrix(1,0,0,1,266.598,266.52)" opacity="0.1"><path fill="#000000" fill-opacity="1" d="M1.933,0.001C1.929,-0.457,1.725,-0.907,1.384,-1.196C1.042,-1.485,0.594,-1.603,0.187,-1.556C-0.652,-1.459,-1.196,-0.707,-1.184,0.001C-1.197,0.708,-0.654,1.464,0.187,1.56C0.594,1.606,1.044,1.489,1.385,1.199C1.726,0.91,1.929,0.459,1.933,0.001ZM1.933,0.001C1.951,0.909,1.227,1.842,0.187,1.933C-0.317,1.981,-0.865,1.821,-1.275,1.463C-1.685,1.106,-1.93,0.556,-1.933,0.001C-1.93,-0.554,-1.687,-1.105,-1.276,-1.462C-0.867,-1.822,-0.317,-1.981,0.187,-1.933C1.228,-1.842,1.951,-0.907,1.933,0.001Z" /></g></g></g></g></g></g><g id="Neck"><g transform="translate(258.505,322.534)"><g transform="rotate(0)"><animateTransform repeatCount="indefinite" type="rotate" attributeName="transform" dur="6s" begin="0s" calcMode="spline" values="0; 12; 0" keyTimes="0; 0.5; 1" keySplines="0.333 0 0.667 1; 0.333 0 0.667 1" fill="freeze" /><g transform="scale(1,1) translate(-258.505,-322.534)"><g transform="matrix(1,0,0,1,0,0)" id="Group 3"><g id="Group 3" transform="matrix(1,0,0,1,0,0)"><g id="Group 3" transform="matrix(1,0,0,1,229.094,266.965)" opacity="0.2"><path fill="#000000" fill-opacity="1" d="M27.868,4.515C25.375,19.906,10.876,30.361,-4.515,27.868C-19.906,25.375,-30.361,10.876,-27.868,-4.515C-25.375,-19.906,-10.876,-30.361,4.515,-27.868C19.906,-25.375,30.361,-10.876,27.868,4.515Z" /></g></g></g></g></g></g></g><g id="Neck"><g transform="translate(258.505,322.534)"><g transform="rotate(0)"><animateTransform repeatCount="indefinite" type="rotate" attributeName="transform" dur="6s" begin="0s" calcMode="spline" values="0; 12; 0" keyTimes="0; 0.5; 1" keySplines="0.333 0 0.667 1; 0.333 0 0.667 1" fill="freeze" /><g transform="scale(1,1) translate(-258.505,-322.534)"><g transform="matrix(1,0,0,1,0,0)" id="Group 2"><g id="Group 2" transform="matrix(1,0,0,1,229.094,266.965)"><path fill="#1a2e35" fill-opacity="1" d="M22.35,3.621C20.35,15.964,8.722,24.35,-3.621,22.35C-15.964,20.35,-24.35,8.723,-22.35,-3.621C-20.35,-15.964,-8.722,-24.35,3.621,-22.35C15.965,-20.35,24.35,-8.722,22.35,3.621Z" /></g></g></g></g></g></g><g id="Neck"><g transform="translate(258.505,322.534)"><g transform="rotate(0)"><animateTransform repeatCount="indefinite" type="rotate" attributeName="transform" dur="6s" begin="0s" calcMode="spline" values="0; 12; 0" keyTimes="0; 0.5; 1" keySplines="0.333 0 0.667 1; 0.333 0 0.667 1" fill="freeze" /><g transform="scale(1,1) translate(-258.505,-322.534)"><g id="Group 1"><g transform="translate(229.094,266.965)"><g transform="rotate(0)"><animateTransform repeatCount="indefinite" type="rotate" attributeName="transform" dur="6s" begin="0s" calcMode="spline" values="0; 90; 180; 270; 360" keyTimes="0; 0.25; 0.5; 0.75; 1" keySplines="0.38 0 0 1; 0.38 0 0 1; 0.38 0 0 1; 0.38 0 0 1" fill="freeze" /><g transform="scale(1,1) translate(-229.094,-266.965)"><g id="Group 1" transform="matrix(1,0,0,1,0,0)"><g id="Group 9" transform="matrix(1,0,0,1,224.648,260.874)"><path fill="#ffc800" fill-opacity="1" d="M2.218,3.075L-3.075,2.218L-2.218,-3.075L3.075,-2.218L2.218,3.075Z" /></g><g id="Group 8" transform="matrix(1,0,0,1,220.213,254.724)"><path fill="#ffc800" fill-opacity="1" d="M2.218,3.075L-3.075,2.218L-2.218,-3.075L3.075,-2.218L2.218,3.075Z" /></g><g id="Group 7" transform="matrix(1,0,0,1,241.385,258.154)"><path fill="#ffc800" fill-opacity="1" d="M2.218,3.075L-3.075,2.218L-2.218,-3.075L3.075,-2.218L2.218,3.075Z" /></g><g id="Group 6" transform="matrix(1,0,0,1,216.802,275.776)"><path fill="#ffc800" fill-opacity="1" d="M2.218,3.075L-3.075,2.218L-2.218,-3.075L3.075,-2.218L2.218,3.075Z" /></g><g id="Group 5" transform="matrix(1,0,0,1,237.974,279.206)"><path fill="#ffc800" fill-opacity="1" d="M2.218,3.075L-3.075,2.218L-2.218,-3.075L3.075,-2.218L2.218,3.075Z" /></g><g id="Group 4" transform="matrix(1,0,0,1,222.953,271.341)"><path fill="#ffc800" fill-opacity="1" d="M2.218,3.075L-3.075,2.218L-2.218,-3.075L3.075,-2.218L2.218,3.075Z" /></g><g id="Group 3" transform="matrix(1,0,0,1,229.094,266.965)"><path fill="#ffc800" fill-opacity="1" d="M2.218,3.075L-3.075,2.218L-2.218,-3.075L3.075,-2.218L2.218,3.075Z" /></g><g id="Group 2" transform="matrix(1,0,0,1,235.234,262.589)"><path fill="#ffc800" fill-opacity="1" d="M2.218,3.075L-3.075,2.218L-2.218,-3.075L3.075,-2.218L2.218,3.075Z" /></g><g id="Group 1" transform="matrix(1,0,0,1,233.539,273.056)"><path fill="#ffc800" fill-opacity="1" d="M2.218,3.075L-3.075,2.218L-2.218,-3.075L3.075,-2.218L2.218,3.075Z" /></g></g></g></g></g></g></g></g></g></g><g id="Neck"><g transform="translate(258.505,322.534)"><g transform="rotate(0)"><animateTransform repeatCount="indefinite" type="rotate" attributeName="transform" dur="6s" begin="0s" calcMode="spline" values="0; 12; 0" keyTimes="0; 0.5; 1" keySplines="0.333 0 0.667 1; 0.333 0 0.667 1" fill="freeze" /><g transform="scale(1,1) translate(-258.505,-322.534)"><g transform="matrix(1,0,0,1,0,0)" id="Group 2"><g id="Group 2" transform="matrix(1,0,0,1,0,0)"><g id="Group 4" transform="matrix(1,0,0,1,0,0)"><g id="Group 3" transform="matrix(1,0,0,1,304.851,278.796)"><path fill="#ffc800" fill-opacity="1" d="M27.466,6.527C23.861,21.696,8.641,31.071,-6.528,27.466C-21.697,23.861,-31.071,8.641,-27.466,-6.528C-23.861,-21.697,-8.642,-31.071,6.527,-27.466C21.696,-23.861,31.071,-8.642,27.466,6.527Z" /></g><g id="Group 2" transform="matrix(1,0,0,1,304.851,278.796)" opacity="0.2"><path fill="#000000" fill-opacity="1" d="M27.466,6.527C23.861,21.696,8.641,31.071,-6.528,27.466C-21.697,23.861,-31.071,8.641,-27.466,-6.528C-23.861,-21.697,-8.642,-31.071,6.527,-27.466C21.696,-23.861,31.071,-8.642,27.466,6.527Z" /></g><g id="Group 1" transform="matrix(1,0,0,1,304.969,268.758)" opacity="0.2"><path fill="#000000" fill-opacity="1" d="M27.351,16.57C27.221,17.126,27.073,17.663,26.906,18.2L-28.122,6.463C-27.992,5.481,-27.816,4.498,-27.584,3.507C-23.98,-11.658,-8.76,-21.033,6.414,-17.429C21.579,-13.825,30.955,1.396,27.351,16.57Z" /></g></g><g id="Group 3" transform="matrix(1,0,0,1,304.851,278.796)"><path fill="#1a2e35" fill-opacity="1" d="M22.028,5.235C19.137,17.4,6.93,24.919,-5.235,22.028C-17.4,19.137,-24.919,6.931,-22.028,-5.235C-19.137,-17.4,-6.93,-24.919,5.235,-22.028C17.4,-19.137,24.919,-6.93,22.028,5.235Z" /></g></g></g></g></g></g></g><g id="Neck"><g transform="translate(258.505,322.534)"><g transform="rotate(0)"><animateTransform repeatCount="indefinite" type="rotate" attributeName="transform" dur="6s" begin="0s" calcMode="spline" values="0; 12; 0" keyTimes="0; 0.5; 1" keySplines="0.333 0 0.667 1; 0.333 0 0.667 1" fill="freeze" /><g transform="scale(1,1) translate(-258.505,-322.534)"><g id="Group 6"><g transform="translate(302.351,289.546)"><g transform="scale(1,1)"><animateTransform repeatCount="indefinite" type="scale" attributeName="transform" dur="4.967s" begin="0s" calcMode="spline" values="1 1; 1 0.2; 1 1; 1 1; 1 0.2; 1 1" keyTimes="0; 0.201; 0.403; 0.597; 0.799; 1" keySplines="0.333 0 0.667 1; 0.333 0 0.667 1; 0.297 0 0.667 1; 0.333 0 0.667 1; 0.333 0 0.667 1" fill="freeze" /><g transform="translate(-302.351,-289.546)"><g id="Group 6" transform="matrix(1,0,0,1,304.851,278.796)"><g id="Group 1"><path fill="#ffc800" fill-opacity="1" d="M-0.477,13.603L-5.694,12.363L0.477,-13.603L5.694,-12.363L-0.477,13.603Z" /></g></g></g></g></g></g></g></g></g></g><g id="Neck"><g transform="translate(258.505,322.534)"><g transform="rotate(0)"><animateTransform repeatCount="indefinite" type="rotate" attributeName="transform" dur="6s" begin="0s" calcMode="spline" values="0; 12; 0" keyTimes="0; 0.5; 1" keySplines="0.333 0 0.667 1; 0.333 0 0.667 1" fill="freeze" /><g transform="scale(1,1) translate(-258.505,-322.534)"><g transform="matrix(1,0,0,1,0,0)" id="Group 1"><g id="Group 1" transform="matrix(1,0,0,1,0,0)"><g id="Group 2" transform="matrix(1,0,0,1,305.463,266.51)"><path fill="#cca000" fill-opacity="1" d="M28.495,18.287L-29.306,4.55C-25.513,-11.408,-9.497,-21.268,6.461,-17.475C22.419,-13.683,32.287,2.329,28.495,18.287Z" /></g></g></g></g></g></g></g><g id="Neck"><g transform="translate(258.505,322.534)"><g transform="rotate(0)"><animateTransform repeatCount="indefinite" type="rotate" attributeName="transform" dur="6s" begin="0s" calcMode="spline" values="0; 12; 0" keyTimes="0; 0.5; 1" keySplines="0.333 0 0.667 1; 0.333 0 0.667 1" fill="freeze" /><g transform="scale(1,1) translate(-258.505,-322.534)"><g id="Group 1"><g transform="translate(263.748,292.316)"><animateTransform repeatCount="indefinite" type="translate" attributeName="transform" dur="6s" begin="0s" calcMode="spline" values="263.748 292.316; 263.748 295.516; 263.748 292.316" keyTimes="0; 0.5; 1" keySplines="0.333 0 0.667 1; 0.333 0 0.667 1" fill="freeze" /><g transform="rotate(0)"><animateTransform repeatCount="indefinite" type="rotate" attributeName="transform" dur="6s" begin="0s" calcMode="spline" values="0; 29.7; 0" keyTimes="0; 0.5; 1" keySplines="0.167 0.167 0.833 1; 0.167 0 0.833 0.833" fill="freeze" /><g transform="scale(1,1) translate(-263.748,-292.316)"><g id="Group 1" transform="matrix(1,0,0,1,263.748,292.316)" opacity="0.1"><path fill="#000000" fill-opacity="1" d="M-8.017,3.262C-7.871,1.005,-7.042,-1.284,-5.406,-3.094C-4.599,-4.006,-3.522,-4.723,-2.336,-5.159C-1.144,-5.597,0.144,-5.674,1.365,-5.57C2.608,-5.425,3.876,-4.986,4.912,-4.203C5.928,-3.402,6.707,-2.36,7.165,-1.237C8.108,1.001,8.212,3.393,7.755,5.611C7.379,3.394,6.805,1.242,5.765,-0.526C4.732,-2.307,3.098,-3.414,1.151,-3.586C-0.835,-3.833,-2.774,-3.3,-4.334,-1.982C-5.895,-0.666,-7.086,1.218,-8.017,3.262Z" /></g></g></g></g></g></g></g></g></g><g id="Neck"><g transform="translate(258.505,322.534)"><g transform="rotate(0)"><animateTransform repeatCount="indefinite" type="rotate" attributeName="transform" dur="6s" begin="0s" calcMode="spline" values="0; 12; 0" keyTimes="0; 0.5; 1" keySplines="0.333 0 0.667 1; 0.333 0 0.667 1" fill="freeze" /><g transform="scale(1,1) translate(-258.505,-322.534)"><g transform="matrix(1,0,0,1,0,0)" id="Layer 33"><g id="Group 3" transform="matrix(1,0,0,1,221.392,219.597)"><path fill="#ffffff" fill-opacity="1" d="M-22.016,18.398C-21.782,15.382,-21.443,12.381,-21.157,9.372C-20.836,6.368,-20.507,3.365,-20.141,0.367C-19.794,-2.633,-19.403,-5.627,-19.019,-8.622C-18.643,-11.618,-18.209,-14.607,-17.807,-17.599L-17.7,-18.398L-16.889,-18.347C-10.375,-17.937,-3.876,-17.411,2.615,-16.744C5.86,-16.411,9.102,-16.034,12.338,-15.617C15.569,-15.153,18.804,-14.726,22.016,-14.138L2.499,-15.346L-16.997,-16.607L-16.08,-17.355C-16.523,-14.368,-16.935,-11.377,-17.404,-8.394C-17.866,-5.41,-18.321,-2.425,-18.819,0.554C-19.299,3.536,-19.814,6.512,-20.339,9.487C-20.898,12.457,-21.405,15.435,-22.016,18.398Z" /></g><g id="Group 2" transform="matrix(1,0,0,1,221.38,250.567)"><path fill="#ffffff" fill-opacity="1" d="M-17.309,10.245C-16.654,6.619,-15.005,3.163,-12.792,0.155C-12.241,-0.602,-11.613,-1.3,-11.01,-2.02C-10.357,-2.694,-9.679,-3.347,-9.008,-4.008C-8.277,-4.602,-7.539,-5.191,-6.789,-5.762C-5.992,-6.267,-5.206,-6.794,-4.395,-7.279C-3.542,-7.689,-2.694,-8.112,-1.833,-8.501L0.849,-9.429L3.626,-10.002C4.558,-10.139,5.504,-10.167,6.439,-10.237C10.203,-10.334,13.908,-9.531,17.309,-8.154C13.69,-8.832,10.083,-9.208,6.528,-8.869C2.982,-8.538,-0.464,-7.478,-3.545,-5.742C-6.65,-4.047,-9.4,-1.71,-11.723,1.006C-14.037,3.736,-15.952,6.828,-17.309,10.245Z" /></g><g id="Group 1" transform="matrix(1,0,0,1,300.359,259.857)"><path fill="#ffffff" fill-opacity="1" d="M-18.413,8.581C-17.263,5.08,-15.154,1.886,-12.546,-0.788C-11.896,-1.461,-11.178,-2.068,-10.481,-2.697C-9.742,-3.274,-8.979,-3.826,-8.224,-4.389C-7.418,-4.877,-6.606,-5.358,-5.784,-5.82C-4.925,-6.21,-4.073,-6.623,-3.203,-6.992C-2.301,-7.28,-1.403,-7.581,-0.497,-7.848L2.288,-8.397L5.116,-8.581C6.058,-8.588,7,-8.485,7.936,-8.426C11.678,-8.002,15.235,-6.695,18.413,-4.862C14.922,-6.033,11.403,-6.903,7.835,-7.058C4.277,-7.22,0.718,-6.647,-2.573,-5.353C-5.882,-4.103,-8.929,-2.167,-11.605,0.202C-14.274,2.587,-16.597,5.384,-18.413,8.581Z" /></g></g></g></g></g></g><g id="Layer 32"><g transform="translate(195.951,356.063)"><g transform="rotate(0)"><animateTransform repeatCount="indefinite" type="rotate" attributeName="transform" dur="6s" begin="0s" calcMode="spline" values="0; -12; 0" keyTimes="0; 0.5; 1" keySplines="0.333 0 0.667 1; 0.333 0 0.667 1" fill="freeze" /><g transform="scale(1,1) translate(-195.951,-356.063)"><g id="Group 3" transform="matrix(1,0,0,1,0,0)"><g id="Group 2" transform="matrix(1,0,0,1,175.523,326.408)"><path fill="#ffc800" fill-opacity="1" d="M19.279,32.5C12.047,32.5,-3.785,30.874,-13.973,17.775C-27.007,1.017,-22.297,-31.139,-22.09,-32.5L-16.431,-31.641C-16.478,-31.332,-20.975,-0.55,-9.455,14.262C1.808,28.743,22.237,26.664,22.442,26.639L23.086,32.326C22.862,32.351,21.462,32.5,19.279,32.5Z" /></g><g id="Group 1" transform="matrix(1,0,0,1,175.523,326.408)" opacity="0.4"><path fill="#ffffff" fill-opacity="1" d="M19.279,32.5C12.047,32.5,-3.785,30.874,-13.973,17.775C-27.007,1.017,-22.297,-31.139,-22.09,-32.5L-16.431,-31.641C-16.478,-31.332,-20.975,-0.55,-9.455,14.262C1.808,28.743,22.237,26.664,22.442,26.639L23.086,32.326C22.862,32.351,21.462,32.5,19.279,32.5Z" /></g></g><g id="Group 2" transform="matrix(1,0,0,1,160.551,284.499)"><path fill="#ffc800" fill-opacity="1" d="M0.207,14.162C-0.825,14.162,-1.879,14.076,-2.953,13.902C-12.499,12.356,-16.724,6.644,-18.589,2.124C-20.458,-2.406,-20.89,-7.886,-19.873,-14.162L-7.767,-12.2C-8.397,-8.312,-8.214,-4.886,-7.252,-2.553C-6.566,-0.889,-5.234,1.109,-0.991,1.796C0.947,2.11,3.041,1.944,5.236,-1.365C6.929,-3.919,7.946,-7.396,8.303,-9.597L20.409,-7.636C20.129,-5.904,18.942,0.156,15.457,5.412C11.665,11.129,6.331,14.162,0.207,14.162Z" /></g><g id="Group 1" transform="matrix(1,0,0,1,0,0)"><g id="Group 2" transform="matrix(1,0,0,1,199.148,355.19)"><path fill="#ffc800" fill-opacity="1" d="M7.612,20.099C7.591,19.838,-2.644,18.203,-2.644,18.203L-7.612,-15.202L4.785,-20.099L7.612,20.099Z" /></g><g id="Group 1" transform="matrix(1,0,0,1,199.148,355.19)" opacity="0.2"><path fill="#000000" fill-opacity="1" d="M7.612,20.099C7.591,19.838,-2.644,18.203,-2.644,18.203L-7.612,-15.202L4.785,-20.099L7.612,20.099Z" /></g></g></g></g></g></g><g transform="matrix(1,0,0,1,0,0)" id="Layer 31"><g id="Group 2" transform="matrix(1,0,0,1,315.956,355.288)"><path fill="#ffc800" fill-opacity="1" d="M-8,20.063C-7.973,19.803,2.295,18.394,2.295,18.394L8,-14.893L-4.285,-20.063L-8,20.063Z" /></g><g id="Group 1" transform="matrix(1,0,0,1,315.956,355.288)" opacity="0.2"><path fill="#000000" fill-opacity="1" d="M-8,20.063C-7.973,19.803,2.295,18.394,2.295,18.394L8,-14.893L-4.285,-20.063L-8,20.063Z" /></g></g><g transform="matrix(1,0,0,1,257.876,368.358)" id="Layer 30"><g id="Group 1"><path fill="#ffc800" fill-opacity="1" d="M-55.375,-40.747C-55.375,-40.747,27.411,-44.287,55.376,-39.626C55.376,-39.626,47.164,40.48,46.72,42.034C46.72,42.034,-35.631,41.812,-48.504,42.034C-48.504,42.034,-55.481,-11.233,-55.375,-40.747Z" /></g></g><g transform="matrix(1,0,0,1,257.876,370.108)" opacity="0.2" id="Layer 29"><g id="Group 1"><path fill="#000000" fill-opacity="1" d="M-30.23,-20.547C-30.23,-20.547,14.964,-22.331,30.23,-19.981C30.23,-19.981,25.747,20.413,25.505,21.196C25.505,21.196,-19.452,21.084,-26.479,21.196C-26.479,21.196,-29.567,-6.451,-30.23,-20.547Z" /></g></g><g transform="matrix(1,0,0,1,230.734,370.383)" opacity="0.2" id="Layer 28"><g id="Group 1"><path fill="#000000" fill-opacity="1" d="M3.09,20.904C2.055,20.904,1.235,20.917,0.661,20.924C0.661,20.924,-2.423,-6.728,-3.09,-20.824C-3.09,-20.824,-2.062,-20.864,-0.267,-20.924L3.09,20.904Z" /></g></g><g id="Layer 27"><g transform="translate(245.51,364.161)"><g transform="rotate(0)"><animateTransform repeatCount="indefinite" type="rotate" attributeName="transform" dur="6s" begin="0s" calcMode="spline" values="0; 1080" keyTimes="0; 1" keySplines="0.333 0 0.667 1" fill="freeze" /><g transform="scale(1,1) translate(-740.156,-1081.844)"><g id="Group 1" transform="matrix(1,0,0,1,0,0)"><g id="Group 1" transform="matrix(1,0,0,1,245.708,364.114)"><g id="Group 1" transform="matrix(1,0,0,1,245.708,364.114)"><g id="Group 1" transform="matrix(1,0,0,1,3.23,-10.544)"><g id="Group 8" transform="matrix(1,0,0,1,242.478,374.658)"><path fill="#ffc800" fill-opacity="1" d="M2.169,-0.697L-1.546,-1.868L-2.169,0.827L1.135,1.868L2.169,-0.697Z" /></g><g id="Group 7" transform="matrix(1,0,0,1,235.898,369.295)"><path fill="#ffc800" fill-opacity="1" d="M2.073,1.186L0.273,-2.269L-2.073,-0.804L-0.472,2.269L2.073,1.186Z" /></g><g id="Group 6" transform="matrix(1,0,0,1,235.012,361.129)"><path fill="#ffc800" fill-opacity="1" d="M0.697,2.169L1.868,-1.546L-0.827,-2.169L-1.868,1.135L0.697,2.169Z" /></g><g id="Group 5" transform="matrix(1,0,0,1,240.376,354.548)"><path fill="#ffc800" fill-opacity="1" d="M-1.186,2.073L2.269,0.273L0.804,-2.073L-2.269,-0.472L-1.186,2.073Z" /></g><g id="Group 4" transform="matrix(1,0,0,1,248.542,353.663)"><path fill="#ffc800" fill-opacity="1" d="M-2.169,0.697L1.546,1.868L2.169,-0.827L-1.135,-1.868L-2.169,0.697Z" /></g><g id="Group 3" transform="matrix(1,0,0,1,255.123,359.026)"><path fill="#ffc800" fill-opacity="1" d="M-2.073,-1.186L-0.273,2.269L2.073,0.804L0.472,-2.269L-2.073,-1.186Z" /></g><g id="Group 2" transform="matrix(1,0,0,1,256.008,367.192)"><path fill="#ffc800" fill-opacity="1" d="M-0.697,-2.169L-1.868,1.546L0.827,2.169L1.868,-1.135L-0.697,-2.169Z" /></g><g id="Group 1" transform="matrix(1,0,0,1,250.644,373.773)"><path fill="#ffc800" fill-opacity="1" d="M1.186,-2.073L-2.269,-0.273L-0.804,2.073L2.269,0.472L1.186,-2.073Z" /></g></g></g></g></g></g></g></g></g><g id="Layer 26"><g transform="translate(261.591,376.374)"><g transform="rotate(0)"><animateTransform repeatCount="indefinite" type="rotate" attributeName="transform" dur="6s" begin="0s" calcMode="spline" values="0; 1080" keyTimes="0; 1" keySplines="0.333 0 0.667 1" fill="freeze" /><g transform="scale(1,1) translate(-789.06,-1122.918)"><g id="Group 1" transform="matrix(1,0,0,1,0,0)"><g id="Group 1" transform="matrix(1,0,0,1,261.728,376.38)"><g id="Group 1" transform="matrix(1,0,0,1,261.728,376.38)"><g id="Group 1" transform="matrix(1,0,0,1,4.013,-6.217)"><g id="Group 8" transform="matrix(1,0,0,1,257.715,382.597)"><path fill="#dcdcdc" fill-opacity="1" d="M1.545,-0.023L-0.653,-1.454L-1.545,0.181L0.41,1.454L1.545,-0.023Z" /></g><g id="Group 7" transform="matrix(1,0,0,1,254.395,377.948)"><path fill="#dcdcdc" fill-opacity="1" d="M1.164,1.162L0.622,-1.404L-1.164,-0.878L-0.682,1.404L1.164,1.162Z" /></g><g id="Group 6" transform="matrix(1,0,0,1,255.369,372.499)"><path fill="#dcdcdc" fill-opacity="1" d="M0.023,1.545L1.454,-0.653L-0.181,-1.545L-1.454,0.41L0.023,1.545Z" /></g><g id="Group 5" transform="matrix(1,0,0,1,260.018,369.178)"><path fill="#dcdcdc" fill-opacity="1" d="M-1.162,1.164L1.404,0.622L0.878,-1.164L-1.404,-0.682L-1.162,1.164Z" /></g><g id="Group 4" transform="matrix(1,0,0,1,265.467,370.152)"><path fill="#dcdcdc" fill-opacity="1" d="M-1.545,0.023L0.653,1.454L1.545,-0.181L-0.41,-1.454L-1.545,0.023Z" /></g><g id="Group 3" transform="matrix(1,0,0,1,268.788,374.801)"><path fill="#dcdcdc" fill-opacity="1" d="M-1.164,-1.162L-0.622,1.404L1.164,0.878L0.682,-1.404L-1.164,-1.162Z" /></g><g id="Group 2" transform="matrix(1,0,0,1,267.814,380.25)"><path fill="#dcdcdc" fill-opacity="1" d="M-0.023,-1.545L-1.454,0.653L0.181,1.545L1.454,-0.41L-0.023,-1.545Z" /></g><g id="Group 1" transform="matrix(1,0,0,1,263.165,383.571)"><path fill="#dcdcdc" fill-opacity="1" d="M1.162,-1.164L-1.404,-0.622L-0.878,1.164L1.404,0.682L1.162,-1.164Z" /></g></g></g></g></g></g></g></g></g><g transform="matrix(1,0,0,1,0,0)" id="Layer 25"><g id="Group 2" transform="matrix(1,0,0,1,317.395,370.515)"><path fill="#ffc800" fill-opacity="1" d="M-6.141,30.554L-2.959,31.146L6.141,-30.48L2.515,-31.146L-6.141,30.554Z" /></g><g id="Group 1" transform="matrix(1,0,0,1,0,0)"><g id="Group 2" transform="matrix(1,0,0,1,301.645,370.222)"><path fill="#ffc800" fill-opacity="1" d="M-18.265,21.082L-13.539,-20.095L18.265,-30.853C18.265,-30.853,9.609,31.514,9.609,30.848L-18.265,21.082Z" /></g><g id="Group 1" transform="matrix(1,0,0,1,301.645,370.222)" opacity="0.4"><path fill="#ffffff" fill-opacity="1" d="M-18.265,21.082L-13.539,-20.095L18.265,-30.853C18.265,-30.853,9.609,31.514,9.609,30.848L-18.265,21.082Z" /></g></g></g><g transform="matrix(1,0,0,1,224.269,340.326)" id="Layer 24"><g id="Group 1"><path fill="#ffffff" fill-opacity="1" d="M-17.969,11.469C-18.487,8.058,-18.767,4.619,-18.98,1.177C-19.078,-0.545,-19.122,-2.269,-19.16,-3.993C-19.194,-5.717,-19.224,-7.443,-19.173,-9.168L-19.159,-9.621L-18.718,-9.645C-12.4,-9.984,-6.087,-10.399,0.235,-10.675C6.555,-10.987,12.875,-11.271,19.2,-11.469C12.895,-10.898,6.587,-10.411,0.277,-9.954C-6.031,-9.461,-12.346,-9.106,-18.657,-8.676L-18.203,-9.153L-18.228,-4.003L-18.168,1.148C-18.159,2.867,-18.128,4.586,-18.078,6.305L-17.969,11.469Z" /></g></g><g transform="matrix(1,0,0,1,305.182,346.489)" id="Layer 23"><g id="Group 1"><path fill="#ffffff" fill-opacity="1" d="M-12.64,4.242C-10.67,3.306,-8.669,2.436,-6.643,1.633C-4.624,0.811,-2.587,0.033,-0.526,-0.681C1.538,-1.386,3.608,-2.076,5.714,-2.661C7.816,-3.253,9.939,-3.8,12.107,-4.155L12.64,-4.242L12.544,-3.733C12.045,-1.067,11.523,1.595,10.906,4.242C11.137,1.534,11.463,-1.159,11.812,-3.849L12.249,-3.427C10.148,-2.926,8.064,-2.341,5.986,-1.727C3.91,-1.106,1.841,-0.453,-0.223,0.22L-12.64,4.242Z" /></g></g><g transform="matrix(1,0,0,1,0,0)" id="Layer 22"><g id="Group 7" transform="matrix(1,0,0,1,221.476,369)" opacity="0.1"><path fill="#000000" fill-opacity="1" d="M-1.414,-41.222L-0.878,-30.923L-0.42,-20.621L0.374,-0.013L0.995,20.601L1.244,30.91L1.414,41.222L0.877,30.923L0.419,20.621L-0.374,0.013L-0.994,-20.601L-1.242,-30.91L-1.414,-41.222Z" /></g><g id="Group 6" transform="matrix(1,0,0,1,215.22,334.365)" opacity="0.1"><path fill="#000000" fill-opacity="1" d="M1.893,-0.379C1.798,-0.827,1.51,-1.228,1.118,-1.444C0.726,-1.66,0.263,-1.686,-0.126,-1.56C-0.929,-1.299,-1.315,-0.454,-1.163,0.237C-1.036,0.932,-0.353,1.568,0.49,1.495C0.898,1.46,1.315,1.255,1.592,0.903C1.87,0.552,1.979,0.071,1.893,-0.379ZM1.893,-0.379C2.091,0.508,1.564,1.566,0.563,1.86C0.078,2.006,-0.49,1.958,-0.963,1.688C-1.436,1.419,-1.784,0.929,-1.897,0.385C-2.004,-0.16,-1.874,-0.748,-1.542,-1.179C-1.212,-1.612,-0.705,-1.877,-0.201,-1.93C0.838,-2.046,1.732,-1.272,1.893,-0.379Z" /></g><g id="Group 5" transform="matrix(1,0,0,1,215.929,346.714)" opacity="0.1"><path fill="#000000" fill-opacity="1" d="M1.893,-0.379C1.798,-0.827,1.51,-1.228,1.118,-1.444C0.726,-1.66,0.263,-1.686,-0.126,-1.56C-0.929,-1.299,-1.315,-0.454,-1.163,0.237C-1.036,0.932,-0.353,1.568,0.49,1.495C0.898,1.46,1.315,1.255,1.592,0.903C1.869,0.552,1.979,0.071,1.893,-0.379ZM1.893,-0.379C2.091,0.508,1.564,1.565,0.563,1.86C0.078,2.006,-0.49,1.958,-0.963,1.688C-1.436,1.419,-1.784,0.929,-1.897,0.385C-2.004,-0.16,-1.874,-0.748,-1.542,-1.179C-1.212,-1.613,-0.705,-1.877,-0.201,-1.93C0.838,-2.046,1.732,-1.272,1.893,-0.379Z" /></g><g id="Group 4" transform="matrix(1,0,0,1,216.379,359.823)" opacity="0.1"><path fill="#000000" fill-opacity="1" d="M1.893,-0.379C1.798,-0.827,1.51,-1.228,1.118,-1.444C0.726,-1.66,0.263,-1.686,-0.126,-1.56C-0.929,-1.299,-1.315,-0.454,-1.163,0.237C-1.036,0.933,-0.353,1.568,0.49,1.495C0.898,1.46,1.315,1.255,1.592,0.903C1.869,0.552,1.979,0.071,1.893,-0.379ZM1.893,-0.379C2.091,0.508,1.564,1.566,0.563,1.86C0.078,2.006,-0.49,1.958,-0.963,1.688C-1.436,1.419,-1.784,0.929,-1.897,0.385C-2.004,-0.159,-1.874,-0.748,-1.542,-1.179C-1.212,-1.613,-0.705,-1.877,-0.201,-1.93C0.838,-2.046,1.732,-1.272,1.893,-0.379Z" /></g><g id="Group 3" transform="matrix(1,0,0,1,216.829,372.931)" opacity="0.1"><path fill="#000000" fill-opacity="1" d="M1.893,-0.379C1.798,-0.827,1.51,-1.228,1.118,-1.444C0.726,-1.66,0.263,-1.686,-0.126,-1.56C-0.929,-1.299,-1.315,-0.454,-1.163,0.237C-1.036,0.932,-0.353,1.568,0.49,1.495C0.898,1.46,1.315,1.255,1.592,0.903C1.869,0.552,1.979,0.071,1.893,-0.379ZM1.893,-0.379C2.091,0.508,1.564,1.565,0.563,1.86C0.078,2.006,-0.49,1.958,-0.963,1.688C-1.436,1.419,-1.784,0.929,-1.897,0.385C-2.004,-0.16,-1.874,-0.748,-1.542,-1.179C-1.212,-1.612,-0.705,-1.877,-0.201,-1.93C0.838,-2.046,1.732,-1.272,1.893,-0.379Z" /></g><g id="Group 2" transform="matrix(1,0,0,1,217.279,386.04)" opacity="0.1"><path fill="#000000" fill-opacity="1" d="M1.893,-0.379C1.798,-0.827,1.51,-1.228,1.118,-1.444C0.726,-1.66,0.263,-1.686,-0.126,-1.56C-0.929,-1.299,-1.315,-0.454,-1.163,0.237C-1.036,0.932,-0.353,1.567,0.49,1.494C0.898,1.459,1.315,1.255,1.592,0.903C1.869,0.552,1.979,0.071,1.893,-0.379ZM1.893,-0.379C2.091,0.508,1.564,1.565,0.563,1.86C0.078,2.006,-0.49,1.958,-0.963,1.688C-1.436,1.419,-1.784,0.929,-1.897,0.385C-2.004,-0.16,-1.874,-0.747,-1.542,-1.179C-1.212,-1.612,-0.705,-1.877,-0.201,-1.93C0.838,-2.046,1.732,-1.272,1.893,-0.379Z" /></g><g id="Group 1" transform="matrix(1,0,0,1,217.729,399.148)" opacity="0.1"><path fill="#000000" fill-opacity="1" d="M1.893,-0.379C1.798,-0.827,1.51,-1.228,1.118,-1.444C0.726,-1.66,0.263,-1.686,-0.126,-1.56C-0.929,-1.299,-1.315,-0.454,-1.163,0.237C-1.036,0.932,-0.353,1.568,0.49,1.495C0.898,1.46,1.315,1.255,1.592,0.903C1.869,0.552,1.979,0.071,1.893,-0.379ZM1.893,-0.379C2.091,0.508,1.564,1.566,0.563,1.86C0.078,2.006,-0.49,1.958,-0.963,1.688C-1.436,1.419,-1.784,0.929,-1.897,0.385C-2.004,-0.159,-1.874,-0.748,-1.542,-1.179C-1.212,-1.613,-0.705,-1.877,-0.201,-1.93C0.838,-2.046,1.732,-1.272,1.893,-0.379Z" /></g></g><g id="Layer 21"><g transform="translate(224.607,421.741)"><g transform="rotate(0)"><animateTransform repeatCount="indefinite" type="rotate" attributeName="transform" dur="6s" begin="0s" calcMode="spline" values="0; 20; 0" keyTimes="0; 0.5; 1" keySplines="0.333 0 0.667 1; 0.333 0 0.667 1" fill="freeze" /><g transform="scale(1,1) translate(-224.607,-421.741)"><g id="Group 5" transform="matrix(1,0,0,1,201.081,428.652)"><path fill="#ffc800" fill-opacity="1" d="M-22.608,9.841L-24.268,4.364L22.608,-9.841L24.268,-4.363L-22.608,9.841Z" /></g><g id="Group 4" transform="matrix(1,0,0,1,201.081,428.652)" opacity="0.4"><path fill="#ffffff" fill-opacity="1" d="M-22.608,9.841L-24.268,4.364L22.608,-9.841L24.268,-4.363L-22.608,9.841Z" /></g><g id="Group 3" transform="matrix(1,0,0,1,199.793,428.652)"><path fill="#ffc800" fill-opacity="1" d="M-1.439,4.918L-4.015,-3.183L1.439,-4.918L4.015,3.183L-1.439,4.918Z" /></g><g id="Group 2" transform="matrix(1,0,0,1,0,0)"><g id="Group 2" transform="matrix(1,0,0,1,153.784,423.991)"><path fill="#ffc800" fill-opacity="1" d="M24.303,22.527L12.207,-29.852L-24.303,-21.196L-6.325,29.852L24.303,22.527Z" /></g><g id="Group 1" transform="matrix(1,0,0,1,0,0)"><g id="Group 2" transform="matrix(1,0,0,1,176.09,420.329)"><path fill="#ffc800" fill-opacity="1" d="M10.098,23.526L1.997,26.189L-10.098,-26.189L1.554,-23.415L10.098,23.526Z" /></g><g id="Group 1" transform="matrix(1,0,0,1,176.09,420.329)" opacity="0.2"><path fill="#000000" fill-opacity="1" d="M10.098,23.526L1.997,26.189L-10.098,-26.189L1.554,-23.415L10.098,23.526Z" /></g></g></g><g id="Group 1" transform="matrix(1,0,0,1,224.519,421.55)"><path fill="#ffc800" fill-opacity="1" d="M6.214,0C6.214,3.432,3.432,6.214,0,6.214C-3.432,6.214,-6.214,3.432,-6.214,0C-6.214,-3.432,-3.432,-6.214,0,-6.214C3.432,-6.214,6.214,-3.432,6.214,0Z" /></g></g></g></g></g><g id="Layer 20"><g transform="translate(287.424,421.491)"><g transform="rotate(0)"><animateTransform repeatCount="indefinite" type="rotate" attributeName="transform" dur="6s" begin="0s" calcMode="spline" values="0; -14; 0" keyTimes="0; 0.5; 1" keySplines="0.333 0 0.667 1; 0.333 0 0.667 1" fill="freeze" /><g transform="scale(1,1) translate(-287.424,-421.491)"><g id="Group 5" transform="matrix(1,0,0,1,311.061,428.558)"><path fill="#ffc800" fill-opacity="1" d="M22.587,9.889L-24.259,-4.415L-22.587,-9.889L24.259,4.415L22.587,9.889Z" /></g><g id="Group 4" transform="matrix(1,0,0,1,311.061,428.558)" opacity="0.4"><path fill="#ffffff" fill-opacity="1" d="M22.587,9.889L-24.259,-4.415L-22.587,-9.889L24.259,4.415L22.587,9.889Z" /></g><g id="Group 3" transform="matrix(1,0,0,1,312.349,428.561)"><path fill="#ffc800" fill-opacity="1" d="M1.428,4.921L-4.022,3.174L-1.428,-4.921L4.022,-3.174L1.428,4.921Z" /></g><g id="Group 2" transform="matrix(1,0,0,1,0,0)"><g id="Group 2" transform="matrix(1,0,0,1,358.367,423.991)"><path fill="#ffc800" fill-opacity="1" d="M-24.349,22.482L-12.142,-29.871L24.349,-21.138L6.263,29.871L-24.349,22.482Z" /></g><g id="Group 1" transform="matrix(1,0,0,1,0,0)"><g id="Group 2" transform="matrix(1,0,0,1,336.073,420.297)"><path fill="#ffc800" fill-opacity="1" d="M-10.151,23.496L-2.056,26.177L10.151,-26.177L-1.507,-23.427L-10.151,23.496Z" /></g><g id="Group 1" transform="matrix(1,0,0,1,336.073,420.297)" opacity="0.2"><path fill="#000000" fill-opacity="1" d="M-10.151,23.496L-2.056,26.177L10.151,-26.177L-1.507,-23.427L-10.151,23.496Z" /></g></g></g><g id="Group 1" transform="matrix(1,0,0,1,287.638,421.406)"><path fill="#ffc800" fill-opacity="1" d="M-6.214,-0.013C-6.221,3.419,-3.445,6.207,-0.013,6.214C3.419,6.221,6.207,3.445,6.214,0.013C6.221,-3.419,3.445,-6.207,0.013,-6.214C-3.419,-6.221,-6.207,-3.445,-6.214,-0.013Z" /></g></g></g></g></g><g id="Layer 19"><g transform="translate(327.373,353.293)"><g transform="rotate(0)"><animateTransform repeatCount="indefinite" type="rotate" attributeName="transform" dur="6s" begin="0s" calcMode="spline" values="0; 12; 0" keyTimes="0; 0.5; 1" keySplines="0.333 0 0.667 1; 0.333 0 0.667 1" fill="freeze" /><g transform="scale(1,1) translate(-327.373,-353.293)"><g id="Group 2" transform="matrix(1,0,0,1,0,0)"><g id="Group 2" transform="matrix(1,0,0,1,361.933,360.311)"><path fill="#ffc800" fill-opacity="1" d="M-33.611,-3.524C-33.464,-3.662,-18.408,-17.626,-0.696,-12.85C17.416,-7.963,32.37,19.317,32.518,19.592L37.553,16.871C36.899,15.66,21.302,-12.852,0.794,-18.375C-20.063,-24,-36.849,-8.342,-37.553,-7.672L-33.611,-3.524Z" /></g><g id="Group 1" transform="matrix(1,0,0,1,361.933,360.311)" opacity="0.4"><path fill="#ffffff" fill-opacity="1" d="M-33.611,-3.524C-33.464,-3.662,-18.408,-17.626,-0.696,-12.85C17.416,-7.963,32.37,19.317,32.518,19.592L37.553,16.871C36.899,15.66,21.302,-12.852,0.794,-18.375C-20.063,-24,-36.849,-8.342,-37.553,-7.672L-33.611,-3.524Z" /></g></g><g id="Group 1" transform="matrix(1,0,0,1,403.846,390.394)"><path fill="#ffc800" fill-opacity="1" d="M-16.069,16.973L-5.223,11.247C-6.264,9.276,-7.546,5.887,-7.732,2.829C-7.973,-1.135,-6.401,-2.529,-4.665,-3.445C-0.865,-5.452,1.403,-4.657,2.952,-3.744C5.125,-2.461,7.335,0.164,9.174,3.648L20.019,-2.078C17.051,-7.7,13.407,-11.815,9.186,-14.306C4.975,-16.788,-1.839,-18.804,-10.391,-14.29C-17.057,-10.771,-20.461,-4.427,-19.974,3.574C-19.591,9.869,-16.888,15.421,-16.069,16.973Z" /></g></g></g></g></g><g opacity="0" id="Group 4"><animate repeatCount="indefinite" begin="0s" calcMode="discrete" fill="freeze" dur="5.367s" values="visible; hidden" keyTimes="0; 1" attributeName="visibility" /><animate repeatCount="indefinite" attributeName="opacity" dur="5.366666666666666s" begin="0s" calcMode="spline" values="0; 1; 1; 0" keyTimes="0; 0.127; 0.913; 1" keySplines="0.333 0 0.667 1; 0.333 0 0.667 1; 0.333 0 0.667 1" fill="freeze" /><g transform="translate(345.342,328.998)"><animateTransform repeatCount="indefinite" type="translate" attributeName="transform" dur="6s" begin="0s" calcMode="spline" values="345.342 328.998; 365.342 316.998" keyTimes="0; 1" keySplines="0 0 1 1" fill="freeze" /><g transform="scale(1,1) translate(-345.342,-328.998)"><g id="Group 4" transform="matrix(1,0,0,1,345.342,328.998)"><path fill="#1a2e35" fill-opacity="1" d="M-14.733,8.68C-12.382,7.056,-9.976,5.526,-7.561,4.01C-5.152,2.485,-2.703,1.027,-0.254,-0.431C2.207,-1.868,4.67,-3.302,7.171,-4.671L10.925,-6.721C12.195,-7.373,13.448,-8.054,14.733,-8.68C13.563,-7.859,12.36,-7.094,11.174,-6.299L7.562,-4.009C5.152,-2.484,2.704,-1.025,0.254,0.431C-2.208,1.867,-4.67,3.302,-7.172,4.67C-9.668,6.048,-12.173,7.411,-14.733,8.68Z" /></g></g></g></g><g opacity="0" visibility="hidden" id="Group 1"><animate repeatCount="indefinite" begin="0.167s" calcMode="discrete" fill="freeze" dur="5.367s" values="visible; hidden" keyTimes="0; 1" attributeName="visibility" /><animate repeatCount="indefinite" attributeName="opacity" dur="5.366666666666666s" begin="0.16666666666666666s" calcMode="spline" values="0; 1; 1; 0" keyTimes="0; 0.127; 0.913; 1" keySplines="0.333 0 0.667 1; 0.333 0 0.667 1; 0.333 0 0.667 1" fill="freeze" /><g transform="translate(352.442,337.21)"><animateTransform repeatCount="indefinite" type="translate" attributeName="transform" dur="6s" begin="0.167s" calcMode="spline" values="352.442 337.21; 365.442 330.41" keyTimes="0; 1" keySplines="0 0 1 1" fill="freeze" /><g transform="scale(1,1) translate(-352.442,-337.21)"><g id="Group 1" transform="matrix(1,0,0,1,352.442,337.21)"><path fill="#1a2e35" fill-opacity="1" d="M-15.152,2.664C-12.662,2.017,-10.154,1.478,-7.642,0.955C-5.132,0.421,-2.61,-0.036,-0.087,-0.492C2.44,-0.925,4.969,-1.356,7.51,-1.711L11.322,-2.239C12.599,-2.379,13.87,-2.554,15.152,-2.664C13.909,-2.33,12.655,-2.06,11.407,-1.756L7.643,-0.953C5.133,-0.42,2.61,0.037,0.087,0.492C-2.441,0.924,-4.969,1.355,-7.51,1.709C-10.049,2.074,-12.591,2.423,-15.152,2.664Z" /></g></g></g></g><g opacity="0" visibility="hidden" id="Group 2"><animate repeatCount="indefinite" begin="0.333s" calcMode="discrete" fill="freeze" dur="5.367s" values="visible; hidden" keyTimes="0; 1" attributeName="visibility" /><animate repeatCount="indefinite" attributeName="opacity" dur="5.366666666666666s" begin="0.3333333333333333s" calcMode="spline" values="0; 1; 1; 0" keyTimes="0; 0.127; 0.913; 1" keySplines="0.333 0 0.667 1; 0.333 0 0.667 1; 0.333 0 0.667 1" fill="freeze" /><g transform="translate(345.047,364.09)"><animateTransform repeatCount="indefinite" type="translate" attributeName="transform" dur="6s" begin="0.333s" calcMode="spline" values="345.047 364.09; 363.747 366.09" keyTimes="0; 1" keySplines="0 0 1 1" fill="freeze" /><g transform="scale(1,1) translate(-345.047,-364.09)"><g id="Group 2" transform="matrix(1,0,0,1,345.047,364.09)"><path fill="#1a2e35" fill-opacity="1" d="M-15.137,-5.89C-12.539,-5.101,-9.982,-4.209,-7.43,-3.302C-4.874,-2.406,-2.347,-1.436,0.181,-0.466C2.7,0.526,5.218,1.52,7.708,2.586L11.442,4.189C12.673,4.757,13.917,5.294,15.137,5.89C13.834,5.505,12.556,5.059,11.264,4.646L7.429,3.303C4.873,2.406,2.346,1.437,-0.181,0.466C-2.699,-0.527,-5.218,-1.521,-7.708,-2.588C-10.202,-3.644,-12.689,-4.716,-15.137,-5.89Z" /></g></g></g></g><g opacity="0" visibility="hidden" id="Group 3"><animate repeatCount="indefinite" begin="0.5s" calcMode="discrete" fill="freeze" dur="5.367s" values="visible; hidden" keyTimes="0; 1" attributeName="visibility" /><animate repeatCount="indefinite" attributeName="opacity" dur="5.366666666666666s" begin="0.5s" calcMode="spline" values="0; 1; 1; 0" keyTimes="0; 0.127; 0.913; 1" keySplines="0.333 0 0.667 1; 0.333 0 0.667 1; 0.333 0 0.667 1" fill="freeze" /><g transform="translate(333.795,367.794)"><animateTransform repeatCount="indefinite" type="translate" attributeName="transform" dur="6s" begin="0.5s" calcMode="spline" values="333.795 367.794; 356.595 374.594" keyTimes="0; 1" keySplines="0 0 1 1" fill="freeze" /><g transform="scale(1,1) translate(-333.795,-367.794)"><g id="Group 3" transform="matrix(1,0,0,1,333.795,367.794)"><path fill="#1a2e35" fill-opacity="1" d="M-9.415,-6.715C-6.048,-4.797,-2.858,-2.632,0.29,-0.407C3.42,1.843,6.507,4.155,9.415,6.715C6.047,4.799,2.856,2.634,-0.29,0.407C-3.419,-1.844,-6.505,-4.157,-9.415,-6.715Z" /></g></g></g></g><g id="Layer 17"><g transform="translate(277.282,355.443)"><g transform="rotate(0)"><animateTransform repeatCount="indefinite" type="rotate" attributeName="transform" dur="6s" begin="0s" calcMode="spline" values="0; -26; 0" keyTimes="0; 0.5; 1" keySplines="0.333 0 0.667 1; 0.333 0 0.667 1" fill="freeze" /><g transform="scale(1,1) translate(25.482,-15.146)"><g id="Group 1"><path stroke-linejoin="miter" stroke-linecap="butt" stroke-width="1" stroke-opacity="1" stroke="#1a2e35" d="M-25.482,15.146C-24.091,9.002,-18.783,-1.149,-10.84,0.129C-2.897,1.407,-2.312,12.812,-6.396,12.457C-10.48,12.102,-10.742,-10.865,3.169,-14.532C17.08,-18.199,25.482,-4.253,25.482,-4.253" /></g></g></g></g></g><g id="Layer 16"><g transform="translate(239.735,392.464)"><g transform="rotate(0)"><animateTransform repeatCount="indefinite" type="rotate" attributeName="transform" dur="6s" begin="0s" calcMode="spline" values="0; -26; 0" keyTimes="0; 0.5; 1" keySplines="0.333 0 0.667 1; 0.333 0 0.667 1" fill="freeze" /><g transform="scale(1,1) translate(-27.429,-9.48)"><g id="Group 1"><path stroke-linejoin="miter" stroke-linecap="butt" stroke-width="1" stroke-opacity="1" stroke="#1a2e35" d="M-27.429,-1.625C-24.508,-6.809,-17.079,-10.772,-10.762,-8.176C-1.552,-4.39,-0.15,9.741,-4.878,9.476C-12.455,9.052,-2.842,-11.019,11.951,-9.385C25.275,-7.913,27.429,7.564,27.429,7.564" /></g></g></g></g></g><g id="Layer 12"><g transform="translate(180.08,385.675)"><g transform="rotate(0)"><animateTransform repeatCount="indefinite" type="rotate" attributeName="transform" dur="6s" begin="0s" calcMode="spline" values="0; 1080" keyTimes="0; 1" keySplines="0.333 0 0.667 1" fill="freeze" /><g transform="scale(1,1) translate(-543.446,-1147.613)"><g id="Group 1" transform="matrix(1,0,0,1,0,0)"><g id="Group 1" transform="matrix(1,0,0,1,180.255,385.633)"><g id="Group 1" transform="matrix(1,0,0,1,180.255,385.633)"><g id="Group 1" transform="matrix(1,0,0,1,2.857,-9.328)"><g id="Group 8" transform="matrix(1,0,0,1,177.398,394.961)"><path fill="#375a64" fill-opacity="1" d="M1.919,-0.617L-1.368,-1.652L-1.919,0.731L1.004,1.652L1.919,-0.617Z" /></g><g id="Group 7" transform="matrix(1,0,0,1,171.576,390.216)"><path fill="#375a64" fill-opacity="1" d="M1.834,1.049L0.242,-2.007L-1.834,-0.711L-0.418,2.007L1.834,1.049Z" /></g><g id="Group 6" transform="matrix(1,0,0,1,170.793,382.993)"><path fill="#375a64" fill-opacity="1" d="M0.617,1.919L1.652,-1.368L-0.731,-1.919L-1.652,1.004L0.617,1.919Z" /></g><g id="Group 5" transform="matrix(1,0,0,1,175.538,377.171)"><path fill="#375a64" fill-opacity="1" d="M-1.049,1.834L2.007,0.242L0.711,-1.834L-2.007,-0.418L-1.049,1.834Z" /></g><g id="Group 4" transform="matrix(1,0,0,1,182.761,376.388)"><path fill="#375a64" fill-opacity="1" d="M-1.919,0.617L1.368,1.652L1.919,-0.731L-1.004,-1.652L-1.919,0.617Z" /></g><g id="Group 3" transform="matrix(1,0,0,1,188.583,381.133)"><path fill="#375a64" fill-opacity="1" d="M-1.834,-1.049L-0.242,2.007L1.834,0.711L0.418,-2.007L-1.834,-1.049Z" /></g><g id="Group 2" transform="matrix(1,0,0,1,189.366,388.356)"><path fill="#375a64" fill-opacity="1" d="M-0.617,-1.919L-1.652,1.368L0.731,1.919L1.652,-1.004L-0.617,-1.919Z" /></g><g id="Group 1" transform="matrix(1,0,0,1,184.621,394.178)"><path fill="#375a64" fill-opacity="1" d="M1.049,-1.834L-2.007,-0.242L-0.711,1.834L2.007,0.418L1.049,-1.834Z" /></g></g></g></g></g></g></g></g></g><g id="Layer 11"><g transform="translate(336.059,344.813)"><g transform="rotate(0)"><animateTransform repeatCount="indefinite" type="rotate" attributeName="transform" dur="6s" begin="0s" calcMode="spline" values="0; 720" keyTimes="0; 1" keySplines="0.333 0 0.667 1" fill="freeze" /><g transform="scale(1,1) translate(-336.059,-344.813)"><g id="Group 2" transform="matrix(1,0,0,1,0,0)"><g id="Group 9" transform="matrix(1,0,0,1,336.333,344.843)"><path fill="#1a2e35" fill-opacity="1" d="M5.138,3.811C3.031,6.65,-0.975,7.243,-3.812,5.138C-6.651,3.031,-7.243,-0.975,-5.136,-3.814C-3.031,-6.651,0.974,-7.243,3.813,-5.136C6.65,-3.031,7.243,0.974,5.138,3.811ZM11.001,8.163C15.509,2.089,14.239,-6.491,8.165,-10.999C2.089,-15.508,-6.492,-14.239,-11,-8.165C-15.509,-2.089,-14.239,6.492,-8.163,11.001C-2.089,15.509,6.492,14.239,11.001,8.163Z" /></g><g id="Group 8" transform="matrix(1,0,0,1,327.514,356.796)"><path fill="#1a2e35" fill-opacity="1" d="M3.109,0.159L-1.121,-2.98L-3.109,0.188L0.653,2.98L3.109,0.159Z" /></g><g id="Group 7" transform="matrix(1,0,0,1,321.421,347.079)"><path fill="#1a2e35" fill-opacity="1" d="M2.209,2.477L1.437,-2.734L-2.209,-1.9L-1.523,2.734L2.209,2.477Z" /></g><g id="Group 6" transform="matrix(1,0,0,1,324.076,336.268)"><path fill="#1a2e35" fill-opacity="1" d="M-0.159,3.109L2.98,-1.121L-0.188,-3.109L-2.98,0.653L-0.159,3.109Z" /></g><g id="Group 5" transform="matrix(1,0,0,1,333.794,330.175)"><path fill="#1a2e35" fill-opacity="1" d="M-2.477,2.209L2.734,1.437L1.9,-2.209L-2.734,-1.523L-2.477,2.209Z" /></g><g id="Group 4" transform="matrix(1,0,0,1,344.605,332.831)"><path fill="#1a2e35" fill-opacity="1" d="M-3.109,-0.159L1.121,2.98L3.109,-0.188L-0.653,-2.98L-3.109,-0.159Z" /></g><g id="Group 3" transform="matrix(1,0,0,1,350.698,342.548)"><path fill="#1a2e35" fill-opacity="1" d="M-2.209,-2.477L-1.437,2.734L2.209,1.9L1.523,-2.734L-2.209,-2.477Z" /></g><g id="Group 2" transform="matrix(1,0,0,1,348.042,353.359)"><path fill="#1a2e35" fill-opacity="1" d="M0.159,-3.109L-2.98,1.121L0.188,3.109L2.98,-0.653L0.159,-3.109Z" /></g><g id="Group 1" transform="matrix(1,0,0,1,338.324,359.452)"><path fill="#1a2e35" fill-opacity="1" d="M2.476,-2.209L-2.734,-1.437L-1.9,2.209L2.734,1.523L2.476,-2.209Z" /></g></g><g id="Group 1" transform="matrix(1,0,0,1,336.058,344.815)"><path fill="#1a2e35" fill-opacity="1" d="M0.885,-1.193C1.545,-0.703,1.682,0.224,1.192,0.884C0.704,1.541,-0.225,1.681,-0.885,1.191C-1.542,0.703,-1.68,-0.229,-1.192,-0.886C-0.702,-1.546,0.228,-1.681,0.885,-1.193ZM-4.632,0.684L-1.722,4.355L2.912,3.666L4.632,-0.686L1.725,-4.355L-2.91,-3.671L-4.632,0.684Z" /></g></g></g></g></g></svg>